<?xml version="1.0" encoding="UTF-8"?>
<!--Generator: Apple Native CoreSVG 175-->
<!DOCTYPE svg
PUBLIC "-//W3C//DTD SVG 1.1//EN"
       "http://www.w3.org/Graphics/SVG/1.1/DTD/svg11.dtd">
<svg version="1.1" xmlns="http://www.w3.org/2000/svg" xmlns:xlink="http://www.w3.org/1999/xlink" width="3300" height="2200">
 <!--glyph: "uni100919.medium", point size: 100.0, font version: "17.1d1e1", template writer version: "65.1"-->
 <g id="Notes">
  <rect height="2200" id="artboard" style="fill:white;opacity:1" width="3300" x="0" y="0"/>
  <line style="fill:none;stroke:black;opacity:1;stroke-width:0.5;" x1="263" x2="3036" y1="292" y2="292"/>
  <text style="stroke:none;fill:black;font-family:sans-serif;font-size:13;font-weight:bold;" transform="matrix(1 0 0 1 263 322)">Weight/Scale Variations</text>
  <text style="stroke:none;fill:black;font-family:sans-serif;font-size:13;text-anchor:middle;" transform="matrix(1 0 0 1 559.711 322)">Ultralight</text>
  <text style="stroke:none;fill:black;font-family:sans-serif;font-size:13;text-anchor:middle;" transform="matrix(1 0 0 1 856.422 322)">Thin</text>
  <text style="stroke:none;fill:black;font-family:sans-serif;font-size:13;text-anchor:middle;" transform="matrix(1 0 0 1 1153.13 322)">Light</text>
  <text style="stroke:none;fill:black;font-family:sans-serif;font-size:13;text-anchor:middle;" transform="matrix(1 0 0 1 1449.84 322)">Regular</text>
  <text style="stroke:none;fill:black;font-family:sans-serif;font-size:13;text-anchor:middle;" transform="matrix(1 0 0 1 1746.56 322)">Medium</text>
  <text style="stroke:none;fill:black;font-family:sans-serif;font-size:13;text-anchor:middle;" transform="matrix(1 0 0 1 2043.27 322)">Semibold</text>
  <text style="stroke:none;fill:black;font-family:sans-serif;font-size:13;text-anchor:middle;" transform="matrix(1 0 0 1 2339.98 322)">Bold</text>
  <text style="stroke:none;fill:black;font-family:sans-serif;font-size:13;text-anchor:middle;" transform="matrix(1 0 0 1 2636.69 322)">Heavy</text>
  <text style="stroke:none;fill:black;font-family:sans-serif;font-size:13;text-anchor:middle;" transform="matrix(1 0 0 1 2933.4 322)">Black</text>
  <line style="fill:none;stroke:black;opacity:1;stroke-width:0.5;" x1="263" x2="3036" y1="1903" y2="1903"/>
  <g transform="matrix(1 0 0 1 263 1933)">
   <path d="M9.24805 0.830078Q10.8691 0.830078 12.2949 0.214844Q13.7207-0.400391 14.8096-1.49414Q15.8984-2.58789 16.5186-4.01367Q17.1387-5.43945 17.1387-7.05078Q17.1387-8.66211 16.5186-10.0879Q15.8984-11.5137 14.8047-12.6074Q13.7109-13.7012 12.2852-14.3164Q10.8594-14.9316 9.23828-14.9316Q7.62695-14.9316 6.20117-14.3164Q4.77539-13.7012 3.69141-12.6074Q2.60742-11.5137 1.9873-10.0879Q1.36719-8.66211 1.36719-7.05078Q1.36719-5.43945 1.9873-4.01367Q2.60742-2.58789 3.69629-1.49414Q4.78516-0.400391 6.21094 0.214844Q7.63672 0.830078 9.24805 0.830078ZM9.24805-0.654297Q7.91992-0.654297 6.7627-1.14746Q5.60547-1.64062 4.73145-2.51953Q3.85742-3.39844 3.36426-4.56055Q2.87109-5.72266 2.87109-7.05078Q2.87109-8.37891 3.35938-9.54102Q3.84766-10.7031 4.72168-11.582Q5.5957-12.4609 6.75293-12.9541Q7.91016-13.4473 9.23828-13.4473Q10.5762-13.4473 11.7334-12.9541Q12.8906-12.4609 13.7695-11.582Q14.6484-10.7031 15.1465-9.54102Q15.6445-8.37891 15.6445-7.05078Q15.6445-5.72266 15.1514-4.56055Q14.6582-3.39844 13.7842-2.51953Q12.9102-1.64062 11.748-1.14746Q10.5859-0.654297 9.24805-0.654297ZM5.6543-7.05078Q5.6543-6.72852 5.85938-6.52832Q6.06445-6.32812 6.40625-6.32812L8.51562-6.32812L8.51562-4.20898Q8.51562-3.88672 8.71094-3.67676Q8.90625-3.4668 9.23828-3.4668Q9.56055-3.4668 9.77051-3.67676Q9.98047-3.88672 9.98047-4.20898L9.98047-6.32812L12.0898-6.32812Q12.4219-6.32812 12.627-6.52832Q12.832-6.72852 12.832-7.05078Q12.832-7.38281 12.627-7.58789Q12.4219-7.79297 12.0898-7.79297L9.98047-7.79297L9.98047-9.90234Q9.98047-10.2344 9.77051-10.4443Q9.56055-10.6543 9.23828-10.6543Q8.90625-10.6543 8.71094-10.4443Q8.51562-10.2344 8.51562-9.90234L8.51562-7.79297L6.40625-7.79297Q6.06445-7.79297 5.85938-7.58789Q5.6543-7.38281 5.6543-7.05078Z"/>
  </g>
  <g transform="matrix(1 0 0 1 281.867 1933)">
   <path d="M11.709 2.91016Q13.75 2.91016 15.5518 2.12891Q17.3535 1.34766 18.7305-0.0292969Q20.1074-1.40625 20.8887-3.20801Q21.6699-5.00977 21.6699-7.05078Q21.6699-9.0918 20.8887-10.8936Q20.1074-12.6953 18.7305-14.0723Q17.3535-15.4492 15.5469-16.2305Q13.7402-17.0117 11.6992-17.0117Q9.6582-17.0117 7.85645-16.2305Q6.05469-15.4492 4.68262-14.0723Q3.31055-12.6953 2.5293-10.8936Q1.74805-9.0918 1.74805-7.05078Q1.74805-5.00977 2.5293-3.20801Q3.31055-1.40625 4.6875-0.0292969Q6.06445 1.34766 7.86621 2.12891Q9.66797 2.91016 11.709 2.91016ZM11.709 1.25Q9.98047 1.25 8.47656 0.605469Q6.97266-0.0390625 5.83496-1.17676Q4.69727-2.31445 4.05762-3.81836Q3.41797-5.32227 3.41797-7.05078Q3.41797-8.7793 4.05762-10.2832Q4.69727-11.7871 5.83008-12.9297Q6.96289-14.0723 8.4668-14.7119Q9.9707-15.3516 11.6992-15.3516Q13.4277-15.3516 14.9316-14.7119Q16.4355-14.0723 17.5781-12.9297Q18.7207-11.7871 19.3652-10.2832Q20.0098-8.7793 20.0098-7.05078Q20.0098-5.32227 19.3701-3.81836Q18.7305-2.31445 17.5928-1.17676Q16.4551-0.0390625 14.9463 0.605469Q13.4375 1.25 11.709 1.25ZM7.17773-7.05078Q7.17773-6.69922 7.41211-6.47461Q7.64648-6.25 8.01758-6.25L10.8887-6.25L10.8887-3.36914Q10.8887-2.99805 11.1133-2.76855Q11.3379-2.53906 11.6895-2.53906Q12.0605-2.53906 12.29-2.76855Q12.5195-2.99805 12.5195-3.36914L12.5195-6.25L15.4004-6.25Q15.7715-6.25 16.001-6.47461Q16.2305-6.69922 16.2305-7.05078Q16.2305-7.42188 16.001-7.65137Q15.7715-7.88086 15.4004-7.88086L12.5195-7.88086L12.5195-10.752Q12.5195-11.1328 12.29-11.3623Q12.0605-11.5918 11.6895-11.5918Q11.3379-11.5918 11.1133-11.3574Q10.8887-11.123 10.8887-10.752L10.8887-7.88086L8.01758-7.88086Q7.63672-7.88086 7.40723-7.65137Q7.17773-7.42188 7.17773-7.05078Z"/>
  </g>
  <g transform="matrix(1 0 0 1 305.646 1933)">
   <path d="M14.9707 5.66406Q17.0605 5.66406 18.96 5.01465Q20.8594 4.36523 22.4512 3.19336Q24.043 2.02148 25.2197 0.429688Q26.3965-1.16211 27.0459-3.06641Q27.6953-4.9707 27.6953-7.05078Q27.6953-9.14062 27.0459-11.04Q26.3965-12.9395 25.2197-14.5312Q24.043-16.123 22.4512-17.2998Q20.8594-18.4766 18.9551-19.126Q17.0508-19.7754 14.9609-19.7754Q12.8711-19.7754 10.9717-19.126Q9.07227-18.4766 7.48535-17.2998Q5.89844-16.123 4.72168-14.5312Q3.54492-12.9395 2.90039-11.04Q2.25586-9.14062 2.25586-7.05078Q2.25586-4.9707 2.90527-3.06641Q3.55469-1.16211 4.72656 0.429688Q5.89844 2.02148 7.49023 3.19336Q9.08203 4.36523 10.9814 5.01465Q12.8809 5.66406 14.9707 5.66406ZM14.9707 3.84766Q13.1641 3.84766 11.5283 3.2959Q9.89258 2.74414 8.53516 1.74805Q7.17773 0.751953 6.17676-0.610352Q5.17578-1.97266 4.62891-3.6084Q4.08203-5.24414 4.08203-7.05078Q4.08203-8.86719 4.62891-10.5029Q5.17578-12.1387 6.17188-13.501Q7.16797-14.8633 8.52539-15.8594Q9.88281-16.8555 11.5186-17.4023Q13.1543-17.9492 14.9609-17.9492Q16.7773-17.9492 18.4131-17.4023Q20.0488-16.8555 21.4111-15.8594Q22.7734-14.8633 23.7695-13.501Q24.7656-12.1387 25.3174-10.5029Q25.8691-8.86719 25.8691-7.05078Q25.8789-5.24414 25.332-3.6084Q24.7852-1.97266 23.7842-0.610352Q22.7832 0.751953 21.4209 1.74805Q20.0586 2.74414 18.4229 3.2959Q16.7871 3.84766 14.9707 3.84766ZM9.19922-7.05078Q9.19922-6.66992 9.45801-6.4209Q9.7168-6.17188 10.1172-6.17188L14.0625-6.17188L14.0625-2.2168Q14.0625-1.81641 14.3115-1.55762Q14.5605-1.29883 14.9512-1.29883Q15.3516-1.29883 15.6104-1.55273Q15.8691-1.80664 15.8691-2.2168L15.8691-6.17188L19.8242-6.17188Q20.2246-6.17188 20.4785-6.4209Q20.7324-6.66992 20.7324-7.05078Q20.7324-7.46094 20.4785-7.71484Q20.2246-7.96875 19.8242-7.96875L15.8691-7.96875L15.8691-11.9141Q15.8691-12.3242 15.6104-12.583Q15.3516-12.8418 14.9512-12.8418Q14.5605-12.8418 14.3115-12.583Q14.0625-12.3242 14.0625-11.9141L14.0625-7.96875L10.1172-7.96875Q9.70703-7.96875 9.45312-7.71484Q9.19922-7.46094 9.19922-7.05078Z"/>
  </g>
  <text style="stroke:none;fill:black;font-family:sans-serif;font-size:13;font-weight:bold;" transform="matrix(1 0 0 1 263 1953)">Design Variations</text>
  <text style="stroke:none;fill:black;font-family:sans-serif;font-size:13;" transform="matrix(1 0 0 1 263 1971)">Symbols are supported in up to nine weights and three scales.</text>
  <text style="stroke:none;fill:black;font-family:sans-serif;font-size:13;" transform="matrix(1 0 0 1 263 1989)">For optimal layout with text and other symbols, vertically align</text>
  <text style="stroke:none;fill:black;font-family:sans-serif;font-size:13;" transform="matrix(1 0 0 1 263 2007)">symbols with the adjacent text.</text>
  <line style="fill:none;stroke:#00AEEF;stroke-width:0.5;opacity:1.0;" x1="776" x2="776" y1="1919" y2="1933"/>
  <g transform="matrix(1 0 0 1 776 1933)">
   <path d="M3.31055 0.15625Q3.70117 0.15625 3.91602-0.00976562Q4.13086-0.175781 4.26758-0.585938L5.52734-4.0332L11.2891-4.0332L12.5488-0.585938Q12.6855-0.175781 12.9004-0.00976562Q13.1152 0.15625 13.4961 0.15625Q13.8867 0.15625 14.1162-0.0585938Q14.3457-0.273438 14.3457-0.644531Q14.3457-0.869141 14.2383-1.17188L9.6582-13.3691Q9.48242-13.8184 9.17969-14.043Q8.87695-14.2676 8.4082-14.2676Q7.5-14.2676 7.17773-13.3789L2.59766-1.16211Q2.49023-0.859375 2.49023-0.634766Q2.49023-0.263672 2.70996-0.0537109Q2.92969 0.15625 3.31055 0.15625ZM6.00586-5.51758L8.37891-12.0898L8.42773-12.0898L10.8008-5.51758Z"/>
  </g>
  <line style="fill:none;stroke:#00AEEF;stroke-width:0.5;opacity:1.0;" x1="793.197" x2="793.197" y1="1919" y2="1933"/>
  <text style="stroke:none;fill:black;font-family:sans-serif;font-size:13;font-weight:bold;" transform="matrix(1 0 0 1 776 1953)">Margins</text>
  <text style="stroke:none;fill:black;font-family:sans-serif;font-size:13;" transform="matrix(1 0 0 1 776 1971)">Leading and trailing margins on the left and right side of each symbol</text>
  <text style="stroke:none;fill:black;font-family:sans-serif;font-size:13;" transform="matrix(1 0 0 1 776 1989)">can be adjusted by modifying the x-location of the margin guidelines.</text>
  <text style="stroke:none;fill:black;font-family:sans-serif;font-size:13;" transform="matrix(1 0 0 1 776 2007)">Modifications are automatically applied proportionally to all</text>
  <text style="stroke:none;fill:black;font-family:sans-serif;font-size:13;" transform="matrix(1 0 0 1 776 2025)">scales and weights.</text>
  <g transform="matrix(1 0 0 1 1289 1933)">
   <path d="M2.8418 1.86523L4.54102 3.57422Q5.18555 4.22852 5.90332 4.17969Q6.62109 4.13086 7.31445 3.35938L18.0078-8.42773L17.041-9.4043L6.42578 2.27539Q6.16211 2.57812 5.89355 2.61719Q5.625 2.65625 5.27344 2.30469L4.10156 1.14258Q3.75 0.791016 3.79395 0.522461Q3.83789 0.253906 4.14062-0.0195312L15.6152-10.8203L14.6387-11.7871L3.04688-0.898438Q2.30469-0.214844 2.25098 0.498047Q2.19727 1.21094 2.8418 1.86523ZM9.25781-16.3281Q8.94531-16.0254 8.90625-15.6348Q8.86719-15.2441 9.04297-14.9512Q9.21875-14.6777 9.55566-14.541Q9.89258-14.4043 10.3809-14.5215Q11.4746-14.7754 12.5977-14.7314Q13.7207-14.6875 14.7949-13.9844L14.209-12.5293Q13.9551-11.9043 14.0674-11.4404Q14.1797-10.9766 14.5801-10.5664L16.875-8.25195Q17.2363-7.88086 17.5781-7.82227Q17.9199-7.76367 18.3398-7.8418L19.4043-8.03711L20.0684-7.36328L20.0293-6.80664Q20-6.43555 20.1221-6.12305Q20.2441-5.81055 20.6055-5.44922L21.3672-4.70703Q21.7285-4.3457 22.1533-4.33105Q22.5781-4.31641 22.9297-4.66797L25.8398-7.58789Q26.1914-7.93945 26.1816-8.35449Q26.1719-8.76953 25.8105-9.13086L25.0391-9.89258Q24.6875-10.2539 24.3799-10.3857Q24.0723-10.5176 23.7109-10.4883L23.1348-10.4395L22.4902-11.0742L22.7344-12.1973Q22.832-12.6172 22.6953-12.9834Q22.5586-13.3496 22.1191-13.7891L19.9219-15.9766Q18.6719-17.2168 17.2607-17.8369Q15.8496-18.457 14.4189-18.4814Q12.9883-18.5059 11.665-17.959Q10.3418-17.4121 9.25781-16.3281ZM10.752-15.957Q11.6602-16.6211 12.7002-16.9043Q13.7402-17.1875 14.8047-17.085Q15.8691-16.9824 16.8701-16.5137Q17.8711-16.0449 18.7012-15.2051L21.1328-12.793Q21.3086-12.6172 21.3525-12.4512Q21.3965-12.2852 21.3379-12.0312L21.0156-10.5469L22.5195-9.0625L23.5059-9.12109Q23.6914-9.13086 23.7891-9.09668Q23.8867-9.0625 24.0332-8.91602L24.6094-8.33984L22.168-5.89844L21.5918-6.47461Q21.4453-6.62109 21.4062-6.71875Q21.3672-6.81641 21.377-7.01172L21.4453-7.98828L19.9512-9.47266L18.4277-9.21875Q18.1836-9.16992 18.042-9.2041Q17.9004-9.23828 17.7148-9.41406L15.7129-11.416Q15.5176-11.5918 15.4932-11.7529Q15.4688-11.9141 15.5859-12.1875L16.4648-14.2773Q15.293-15.3711 13.8281-15.791Q12.3633-16.2109 10.8398-15.7617Q10.7227-15.7324 10.6885-15.8057Q10.6543-15.8789 10.752-15.957Z"/>
  </g>
  <text style="stroke:none;fill:black;font-family:sans-serif;font-size:13;font-weight:bold;" transform="matrix(1 0 0 1 1289 1953)">Exporting</text>
  <text style="stroke:none;fill:black;font-family:sans-serif;font-size:13;" transform="matrix(1 0 0 1 1289 1971)">Symbols should be outlined when exporting to ensure the</text>
  <text style="stroke:none;fill:black;font-family:sans-serif;font-size:13;" transform="matrix(1 0 0 1 1289 1989)">design is preserved when submitting to Xcode.</text>
  <text id="template-version" style="stroke:none;fill:black;font-family:sans-serif;font-size:13;text-anchor:end;" transform="matrix(1 0 0 1 3036 1933)">Template v.3.0</text>
  <text style="stroke:none;fill:black;font-family:sans-serif;font-size:13;text-anchor:end;" transform="matrix(1 0 0 1 3036 1951)">Requires Xcode 13 or greater</text>
  <text id="descriptive-name" style="stroke:none;fill:black;font-family:sans-serif;font-size:13;text-anchor:end;" transform="matrix(1 0 0 1 3036 1969)">Generated from curlybraces.square.fill</text>
  <text style="stroke:none;fill:black;font-family:sans-serif;font-size:13;text-anchor:end;" transform="matrix(1 0 0 1 3036 1987)">Typeset at 100 points</text>
  <text style="stroke:none;fill:black;font-family:sans-serif;font-size:13;" transform="matrix(1 0 0 1 263 726)">Small</text>
  <text style="stroke:none;fill:black;font-family:sans-serif;font-size:13;" transform="matrix(1 0 0 1 263 1156)">Medium</text>
  <text style="stroke:none;fill:black;font-family:sans-serif;font-size:13;" transform="matrix(1 0 0 1 263 1586)">Large</text>
 </g>
 <g id="Guides">
  <g id="H-reference" style="fill:#27AAE1;stroke:none;" transform="matrix(1 0 0 1 339 696)">
   <path d="M0.993347 0L3.6377 0L29.3282-67.1326L30.0301-67.1326L30.0301-70.459L28.1227-70.459ZM11.6882-24.4797L46.9818-24.4797L46.2311-26.7288L12.4382-26.7288ZM55.1193 0L57.7637 0L30.6381-70.459L29.4327-70.459L29.4327-67.1326Z"/>
  </g>
  <line id="Baseline-S" style="fill:none;stroke:#27AAE1;opacity:1;stroke-width:0.5;" x1="263" x2="3036" y1="696" y2="696"/>
  <line id="Capline-S" style="fill:none;stroke:#27AAE1;opacity:1;stroke-width:0.5;" x1="263" x2="3036" y1="625.541" y2="625.541"/>
  <g id="H-reference" style="fill:#27AAE1;stroke:none;" transform="matrix(1 0 0 1 339 1126)">
   <path d="M0.993347 0L3.6377 0L29.3282-67.1326L30.0301-67.1326L30.0301-70.459L28.1227-70.459ZM11.6882-24.4797L46.9818-24.4797L46.2311-26.7288L12.4382-26.7288ZM55.1193 0L57.7637 0L30.6381-70.459L29.4327-70.459L29.4327-67.1326Z"/>
  </g>
  <line id="Baseline-M" style="fill:none;stroke:#27AAE1;opacity:1;stroke-width:0.5;" x1="263" x2="3036" y1="1126" y2="1126"/>
  <line id="Capline-M" style="fill:none;stroke:#27AAE1;opacity:1;stroke-width:0.5;" x1="263" x2="3036" y1="1055.54" y2="1055.54"/>
  <g id="H-reference" style="fill:#27AAE1;stroke:none;" transform="matrix(1 0 0 1 339 1556)">
   <path d="M0.993347 0L3.6377 0L29.3282-67.1326L30.0301-67.1326L30.0301-70.459L28.1227-70.459ZM11.6882-24.4797L46.9818-24.4797L46.2311-26.7288L12.4382-26.7288ZM55.1193 0L57.7637 0L30.6381-70.459L29.4327-70.459L29.4327-67.1326Z"/>
  </g>
  <line id="Baseline-L" style="fill:none;stroke:#27AAE1;opacity:1;stroke-width:0.5;" x1="263" x2="3036" y1="1556" y2="1556"/>
  <line id="Capline-L" style="fill:none;stroke:#27AAE1;opacity:1;stroke-width:0.5;" x1="263" x2="3036" y1="1485.54" y2="1485.54"/>
  <line id="left-margin-Regular-M" style="fill:none;stroke:#00AEEF;stroke-width:0.5;opacity:1.0;" x1="1392.45" x2="1392.45" y1="1030.79" y2="1150.12"/>
  <line id="right-margin-Regular-M" style="fill:none;stroke:#00AEEF;stroke-width:0.5;opacity:1.0;" x1="1507.24" x2="1507.24" y1="1030.79" y2="1150.12"/>
 </g>
 <g id="Symbols">
  <g id="Black-L" transform="matrix(1 0 0 1 2855.72 1556)">
   <path d="M39.8559 26.4225L115.512 26.4225Q126.881 26.4225 133.083 20.23Q139.284 14.0375 139.284 2.71277L139.284-73.0901Q139.284-84.4148 133.083-90.6066Q126.881-96.7985 115.512-96.7985L39.8559-96.7985Q28.5079-96.7985 22.2959-90.6073Q16.084-84.4161 16.084-73.0901L16.084 2.71277Q16.084 14.0401 22.2959 20.2313Q28.5079 26.4225 39.8559 26.4225ZM65.1284-0.546875Q57.6553-0.546875 53.5562-4.9769Q49.457-9.40693 49.457-17.5336L49.457-23.761Q49.457-25.7303 48.8269-26.5251Q48.1967-27.3199 46.9964-27.5985Q43.1914-28.6286 41.9336-31.9096Q40.6758-35.1906 41.9336-38.4612Q43.1914-41.7318 46.9964-42.7022Q48.1967-42.9808 48.8269-43.6887Q49.457-44.3965 49.457-46.4242L49.457-52.7892Q49.457-60.8951 53.5562-65.3355Q57.6553-69.7759 65.1284-69.7759Q69.0113-69.7759 71.3155-67.9634Q73.6196-66.151 73.6196-63.1644Q73.6196-60.2947 71.9539-58.5717Q70.2881-56.8488 67.6714-56.8488Q65.2477-56.8488 64.231-55.5662Q63.2144-54.2837 63.2144-51.9045L63.2144-45.309Q63.2144-40.0305 59.8874-36.6773Q56.5605-33.324 50.6487-32.6652L50.6487-37.9119Q56.5605-36.7274 59.8874-33.2944Q63.2144-29.8613 63.2144-25.0501L63.2144-18.4182Q63.2144-16.0183 64.231-14.7358Q65.2477-13.4532 67.6714-13.4532Q70.2881-13.4532 71.9539-11.7303Q73.6196-10.0074 73.6196-7.13756Q73.6196-4.15096 71.3155-2.34892Q69.0113-0.546875 65.1284-0.546875ZM90.4916-0.546875Q86.6282-0.546875 84.3137-2.34892Q81.9992-4.15096 81.9992-7.13756Q81.9992-10.0074 83.6363-11.7303Q85.2735-13.4532 87.9681-13.4532Q90.3127-13.4532 91.3585-14.7358Q92.4044-16.0183 92.4044-18.4182L92.4044-25.0501Q92.4044-29.8613 95.7131-33.2944Q99.0219-36.7274 104.992-37.9119L104.992-32.6652Q99.0219-33.324 95.7131-36.6773Q92.4044-40.0305 92.4044-45.309L92.4044-51.9045Q92.4044-54.2837 91.3585-55.5662Q90.3127-56.8488 87.9681-56.8488Q85.2735-56.8488 83.6363-58.5717Q81.9992-60.2947 81.9992-63.1644Q81.9992-66.151 84.2553-67.9634Q86.5114-69.7759 90.4916-69.7759Q97.9051-69.7759 102.044-65.3355Q106.182-60.8951 106.182-52.7892L106.182-46.4242Q106.182-44.3965 106.785-43.6893Q107.387-42.9821 108.644-42.7022Q112.427-41.8096 113.696-38.4995Q114.965-35.1893 113.696-31.8506Q112.427-28.5118 108.644-27.5985Q107.386-27.3225 106.784-26.5264Q106.182-25.7303 106.182-23.761L106.182-17.5336Q106.182-9.40693 102.044-4.9769Q97.9051-0.546875 90.4916-0.546875Z"/>
  </g>
  <g id="Heavy-L" transform="matrix(1 0 0 1 2559.92 1556)">
   <path d="M38.8328 25.5158L114.704 25.5158Q125.682 25.5158 131.567 19.6396Q137.452 13.7633 137.452 2.85629L137.452-73.2288Q137.452-84.1358 131.567-90.0091Q125.682-95.8823 114.704-95.8823L38.8328-95.8823Q27.8839-95.8823 21.984-90.0121Q16.084-84.1419 16.084-73.2288L16.084 2.85629Q16.084 13.7754 21.984 19.6456Q27.8839 25.5158 38.8328 25.5158ZM64.1546-0.413205Q56.9191-0.413205 52.9363-4.66648Q48.9536-8.91975 48.9536-16.9001L48.9536-23.6212Q48.9536-25.9645 48.2306-26.8798Q47.5075-27.795 45.9922-28.1711Q42.4712-29.1176 41.3135-32.1564Q40.1557-35.1953 41.3135-38.2193Q42.4712-41.2433 45.9922-42.1391Q47.5075-42.5152 48.2306-43.3665Q48.9536-44.2179 48.9536-46.6058L48.9536-53.4459Q48.9536-61.3965 52.9363-65.6647Q56.9191-69.9328 64.1546-69.9328Q67.7705-69.9328 69.8701-68.2646Q71.9697-66.5964 71.9697-63.8792Q71.9697-61.2513 70.4161-59.6724Q68.8625-58.0934 66.4368-58.0934Q63.7968-58.0934 62.6773-56.7182Q61.5578-55.3429 61.5578-52.5613L61.5578-45.3818Q61.5578-40.3191 58.4314-37.0626Q55.305-33.806 49.7672-33.1305L49.7672-37.4238Q55.305-36.3466 58.4314-33.0127Q61.5578-29.6788 61.5578-24.9731L61.5578-17.7847Q61.5578-14.9733 62.6773-13.5981Q63.7968-12.2228 66.4368-12.2228Q68.8625-12.2228 70.4161-10.6439Q71.9697-9.06495 71.9697-6.43702Q71.9697-3.71984 69.8701-2.06652Q67.7705-0.413205 64.1546-0.413205ZM89.5778-0.413205Q85.9857-0.413205 83.8712-2.06652Q81.7567-3.71984 81.7567-6.43702Q81.7567-9.06495 83.2911-10.6439Q84.8254-12.2228 87.3194-12.2228Q89.885-12.2228 91.0268-13.5981Q92.1687-14.9733 92.1687-17.7847L92.1687-24.9731Q92.1687-29.6788 95.2906-33.0127Q98.4126-36.3466 103.995-37.4238L103.995-33.1305Q98.4126-33.806 95.2906-37.0626Q92.1687-40.3191 92.1687-45.3818L92.1687-52.5613Q92.1687-55.3429 91.0268-56.7182Q89.885-58.0934 87.3194-58.0934Q84.8254-58.0934 83.2911-59.6724Q81.7567-61.2513 81.7567-63.8792Q81.7567-66.5964 83.8266-68.2646Q85.8964-69.9328 89.5778-69.9328Q96.7628-69.9328 100.783-65.6647Q104.803-61.3965 104.803-53.4459L104.803-46.6058Q104.803-44.2179 105.509-43.3695Q106.216-42.5212 107.77-42.1391Q111.255-41.3117 112.431-38.2505Q113.607-35.1893 112.431-32.1088Q111.255-29.0283 107.77-28.1711Q106.21-27.8071 105.506-26.8858Q104.803-25.9645 104.803-23.6212L104.803-16.9001Q104.803-8.91975 100.783-4.66648Q96.7628-0.413205 89.5778-0.413205Z"/>
  </g>
  <g id="Bold-L" transform="matrix(1 0 0 1 2264.35 1556)">
   <path d="M37.5443 24.3864L113.709 24.3864Q124.174 24.3864 129.672 18.8927Q135.17 13.3991 135.17 3.03698L135.17-73.4013Q135.17-83.7634 129.672-89.2499Q124.174-94.7365 113.709-94.7365L37.5443-94.7365Q27.1168-94.7365 21.6004-89.257Q16.084-83.7776 16.084-73.4013L16.084 3.03698Q16.084 13.4275 21.6004 18.9069Q27.1168 24.3864 37.5443 24.3864ZM62.9847-0.341384Q56.0753-0.341384 52.2516-4.35663Q48.4279-8.37188 48.4279-16.1166L48.4279-23.5137Q48.4279-26.31 47.5823-27.3787Q46.7366-28.4474 44.8199-28.9497Q41.6887-29.7854 40.6658-32.4944Q39.643-35.2035 40.6658-37.8941Q41.6887-40.5847 44.8199-41.3769Q46.7366-41.8792 47.5823-42.9112Q48.4279-43.9432 48.4279-46.7687L48.4279-54.2612Q48.4279-61.9689 52.2516-66.0027Q56.0753-70.0364 62.9847-70.0364Q66.207-70.0364 68.0331-68.5626Q69.8593-67.0889 69.8593-64.7278Q69.8593-62.4251 68.4656-61.036Q67.072-59.6469 64.9088-59.6469Q62.0212-59.6469 60.7535-58.1536Q59.4859-56.6603 59.4859-53.3766L59.4859-45.4487Q59.4859-40.6246 56.5968-37.4806Q53.7077-34.3365 48.6228-33.674L48.6228-36.8576Q53.7077-35.9322 56.5968-32.7149Q59.4859-29.4976 59.4859-24.9071L59.4859-17.0012Q59.4859-13.6805 60.7535-12.1872Q62.0212-10.6939 64.9088-10.6939Q67.072-10.6939 68.4656-9.30485Q69.8593-7.91576 69.8593-5.61306Q69.8593-3.25195 68.0331-1.79667Q66.207-0.341384 62.9847-0.341384ZM88.3944-0.341384Q85.195-0.341384 83.3503-1.79667Q81.5057-3.25195 81.5057-5.61306Q81.5057-7.91576 82.8918-9.30485Q84.278-10.6939 86.4931-10.6939Q89.3145-10.6939 90.5968-12.1872Q91.8791-13.6805 91.8791-17.0012L91.8791-24.9071Q91.8791-29.4976 94.7792-32.7149Q97.6792-35.9322 102.793-36.8576L102.793-33.674Q97.6792-34.3365 94.7792-37.4806Q91.8791-40.6246 91.8791-45.4487L91.8791-53.3766Q91.8791-56.6603 90.5968-58.1536Q89.3145-59.6469 86.4931-59.6469Q84.278-59.6469 82.8918-61.036Q81.5057-62.4251 81.5057-64.7278Q81.5057-67.0889 83.3211-68.5626Q85.1366-70.0364 88.3944-70.0364Q95.2604-70.0364 99.1172-66.0027Q102.974-61.9689 102.974-54.2612L102.974-46.7687Q102.974-43.9432 103.819-42.9183Q104.665-41.8934 106.596-41.3769Q109.676-40.6366 110.725-37.913Q111.773-35.1893 110.725-32.4581Q109.676-29.727 106.596-28.9497Q104.65-28.4759 103.812-27.3929Q102.974-26.31 102.974-23.5137L102.974-16.1166Q102.974-8.37188 99.1172-4.35663Q95.2604-0.341384 88.3944-0.341384Z"/>
  </g>
  <g id="Semibold-L" transform="matrix(1 0 0 1 1968.43 1556)">
   <path d="M36.6561 23.6077L113.024 23.6077Q123.134 23.6077 128.365 18.3778Q133.596 13.1479 133.596 3.16154L133.596-73.5202Q133.596-83.5066 128.365-88.7266Q123.134-93.9466 113.024-93.9466L36.6561-93.9466Q26.588-93.9466 21.336-88.7365Q16.084-83.5265 16.084-73.5202L16.084 3.16154Q16.084 13.1877 21.336 18.3977Q26.588 23.6077 36.6561 23.6077ZM62.1782-0.291871Q55.4937-0.291871 51.7796-4.14303Q48.0655-7.99418 48.0655-15.5765L48.0655-23.4396Q48.0655-26.5481 47.1353-27.7227Q46.2051-28.8972 44.0117-29.4865Q41.1492-30.2458 40.2194-32.7275Q39.2895-35.2092 40.2194-37.6699Q41.1492-40.1306 44.0117-40.8514Q46.2051-41.4407 47.1353-42.5973Q48.0655-43.7539 48.0655-46.881L48.0655-54.8232Q48.0655-62.3636 51.7796-66.2357Q55.4937-70.1079 62.1782-70.1079Q65.129-70.1079 66.7667-68.7681Q68.4044-67.4284 68.4044-65.3127Q68.4044-63.2343 67.121-61.976Q65.8376-60.7178 63.8555-60.7178Q60.7971-60.7178 59.4273-59.1431Q58.0575-57.5685 58.0575-53.9386L58.0575-45.4949Q58.0575-40.8352 55.332-37.7687Q52.6066-34.7023 47.8339-34.0487L47.8339-36.4673Q52.6066-35.6466 55.332-32.5096Q58.0575-29.3727 58.0575-24.8615L58.0575-16.4611Q58.0575-12.7893 59.4273-11.2146Q60.7971-9.63994 63.8555-9.63994Q65.8376-9.63994 67.121-8.38173Q68.4044-7.12351 68.4044-5.04503Q68.4044-2.9294 66.7667-1.61063Q65.129-0.291871 62.1782-0.291871ZM87.5786-0.291871Q84.6499-0.291871 82.9912-1.61063Q81.3326-2.9294 81.3326-5.04503Q81.3326-7.12351 82.6166-8.38173Q83.9007-9.63994 85.9234-9.63994Q88.9212-9.63994 90.3003-11.2146Q91.6795-12.7893 91.6795-16.4611L91.6795-24.8615Q91.6795-29.3727 94.4266-32.5096Q97.1737-35.6466 101.965-36.4673L101.965-34.0487Q97.1737-34.7023 94.4266-37.7687Q91.6795-40.8352 91.6795-45.4949L91.6795-53.9386Q91.6795-57.5685 90.3003-59.1431Q88.9212-60.7178 85.9234-60.7178Q83.9007-60.7178 82.6166-61.976Q81.3326-63.2343 81.3326-65.3127Q81.3326-67.4284 82.9727-68.7681Q84.6127-70.1079 87.5786-70.1079Q94.2247-70.1079 97.9691-66.2357Q101.713-62.3636 101.713-54.8232L101.713-46.881Q101.713-43.7539 102.654-42.6072Q103.595-41.4606 105.787-40.8514Q108.588-40.1713 109.549-37.6803Q110.509-35.1893 109.549-32.6989Q108.588-30.2086 105.787-29.4865Q103.575-28.9369 102.644-27.7425Q101.713-26.5481 101.713-23.4396L101.713-15.5765Q101.713-7.99418 97.9691-4.14303Q94.2247-0.291871 87.5786-0.291871Z"/>
  </g>
  <g id="Medium-L" transform="matrix(1 0 0 1 1672.31 1556)">
   <path d="M35.9826 23.0174L112.505 23.0174Q122.346 23.0174 127.375 17.9874Q132.403 12.9575 132.403 3.25599L132.403-73.6104Q132.403-83.3119 127.375-88.3298Q122.346-93.3476 112.505-93.3476L35.9826-93.3476Q26.187-93.3476 21.1355-88.3419Q16.084-83.3361 16.084-73.6104L16.084 3.25599Q16.084 13.0058 21.1355 18.0116Q26.187 23.0174 35.9826 23.0174ZM61.5666-0.254328Q55.0526-0.254328 51.4217-3.98106Q47.7907-7.7078 47.7907-15.167L47.7907-23.3834Q47.7907-26.7287 46.7964-27.9835Q45.8021-29.2382 43.3988-29.8935Q40.7402-30.5948 39.8808-32.9041Q39.0215-35.2134 39.8808-37.4999Q40.7402-39.7863 43.3988-40.4529Q45.8021-41.1082 46.7964-42.3593Q47.7907-43.6104 47.7907-46.9661L47.7907-55.2494Q47.7907-62.6628 51.4217-66.4124Q55.0526-70.162 61.5666-70.162Q64.3117-70.162 65.8065-68.9239Q67.3012-67.6858 67.3012-65.7563Q67.3012-63.8478 66.1014-62.6888Q64.9017-61.5298 63.0568-61.5298Q59.869-61.5298 58.4217-59.8935Q56.9745-58.2571 56.9745-54.3648L56.9745-45.5299Q56.9745-40.9949 54.373-37.9872Q51.7716-34.9796 47.2357-34.3328L47.2357-36.1713Q51.7716-35.4299 54.373-32.354Q56.9745-29.278 56.9745-24.827L56.9745-16.0516Q56.9745-12.1135 58.4217-10.4771Q59.869-8.84076 63.0568-8.84076Q64.9017-8.84076 66.1014-7.68178Q67.3012-6.5228 67.3012-4.61432Q67.3012-2.68482 65.8065-1.46957Q64.3117-0.254328 61.5666-0.254328ZM86.96-0.254328Q84.2366-0.254328 82.719-1.46957Q81.2014-2.68482 81.2014-4.61432Q81.2014-6.5228 82.4079-7.68178Q83.6145-8.84076 85.4915-8.84076Q88.623-8.84076 90.0756-10.4771Q91.5281-12.1135 91.5281-16.0516L91.5281-24.827Q91.5281-29.278 94.1592-32.354Q96.7903-35.4299 101.337-36.1713L101.337-34.3328Q96.7903-34.9796 94.1592-37.9872Q91.5281-40.9949 91.5281-45.5299L91.5281-54.3648Q91.5281-58.2571 90.0756-59.8935Q88.623-61.5298 85.4915-61.5298Q83.6145-61.5298 82.4079-62.6888Q81.2014-63.8478 81.2014-65.7563Q81.2014-67.6858 82.7085-68.9239Q84.2155-70.162 86.96-70.162Q93.4394-70.162 97.0985-66.4124Q100.758-62.6628 100.758-55.2494L100.758-46.9661Q100.758-43.6104 101.771-42.3714Q102.784-41.1324 105.174-40.4529Q107.762-39.8184 108.657-37.5038Q109.551-35.1893 108.657-32.8815Q107.762-30.5738 105.174-29.8935Q102.76-29.2865 101.759-28.0076Q100.758-26.7287 100.758-23.3834L100.758-15.167Q100.758-7.7078 97.0985-3.98106Q93.4394-0.254328 86.96-0.254328Z"/>
  </g>
  <g id="Regular-L" transform="matrix(1 0 0 1 1376.38 1556)">
   <path d="M35.1041 22.2473L111.827 22.2473Q121.318 22.2473 126.082 17.4782Q130.847 12.7092 130.847 3.37919L130.847-73.728Q130.847-83.058 126.082-87.8122Q121.318-92.5664 111.827-92.5664L35.1041-92.5664Q25.664-92.5664 20.874-87.8271Q16.084-83.0877 16.084-73.728L16.084 3.37919Q16.084 12.7686 20.874 17.508Q25.664 22.2473 35.1041 22.2473ZM60.769-0.205359Q54.4774-0.205359 50.9548-3.7698Q47.4323-7.33425 47.4323-14.6328L47.4323-23.3102Q47.4323-26.9643 46.3543-28.3236Q45.2764-29.683 42.5995-30.4244Q40.2066-31.0502 39.4393-33.1346Q38.6719-35.219 39.4393-37.2781Q40.2066-39.3372 42.5995-39.9332Q45.2764-40.6746 46.3543-42.0489Q47.4323-43.4231 47.4323-47.0772L47.4323-55.8053Q47.4323-63.0531 50.9548-66.6429Q54.4774-70.2327 60.769-70.2327Q63.2457-70.2327 64.554-69.1271Q65.8622-68.0216 65.8622-66.3348Q65.8622-64.6481 64.7715-63.6186Q63.6809-62.589 62.0151-62.589Q58.6584-62.589 57.1101-60.8721Q55.5618-59.1553 55.5618-54.9206L55.5618-45.5756Q55.5618-41.2032 53.1222-38.2723Q50.6826-35.3413 46.4555-34.7034L46.4555-35.7853Q50.6826-35.1474 53.1222-32.1509Q55.5618-29.1544 55.5618-24.782L55.5618-15.5174Q55.5618-11.2321 57.1101-9.51522Q58.6584-7.79834 62.0151-7.79834Q63.6809-7.79834 64.7715-6.7688Q65.8622-5.73926 65.8622-4.05253Q65.8622-2.36581 64.554-1.28558Q63.2457-0.205359 60.769-0.205359ZM86.1532-0.205359Q83.6975-0.205359 82.3638-1.28558Q81.0302-2.36581 81.0302-4.05253Q81.0302-5.73926 82.1358-6.7688Q83.2413-7.79834 84.928-7.79834Q88.2341-7.79834 89.7824-9.51522Q91.3306-11.2321 91.3306-15.5174L91.3306-24.782Q91.3306-29.1544 93.8105-32.1509Q96.2903-35.1474 100.517-35.7853L100.517-34.7034Q96.2903-35.3413 93.8105-38.2723Q91.3306-41.2032 91.3306-45.5756L91.3306-54.9206Q91.3306-59.1553 89.7824-60.8721Q88.2341-62.589 84.928-62.589Q83.2413-62.589 82.1358-63.6186Q81.0302-64.6481 81.0302-66.3348Q81.0302-68.0216 82.3638-69.1271Q83.6975-70.2327 86.1532-70.2327Q92.4151-70.2327 95.963-66.6429Q99.5109-63.0531 99.5109-55.8053L99.5109-47.0772Q99.5109-43.4231 100.619-42.0637Q101.726-40.7043 104.373-39.9332Q106.686-39.3581 107.493-37.2737Q108.301-35.1893 107.493-33.1197Q106.686-31.0502 104.373-30.4244Q101.696-29.7425 100.604-28.3534Q99.5109-26.9643 99.5109-23.3102L99.5109-14.6328Q99.5109-7.33425 95.963-3.7698Q92.4151-0.205359 86.1532-0.205359Z"/>
  </g>
  <g id="Light-L" transform="matrix(1 0 0 1 1080.5 1556)">
   <path d="M34.078 21.4264L111.191 21.4264Q120.127 21.4264 124.656 16.8626Q129.185 12.2987 129.185 3.52284L129.185-73.8511Q129.185-82.627 124.656-87.1657Q120.127-91.7045 111.191-91.7045L34.078-91.7045Q25.1715-91.7045 20.6277-87.1909Q16.084-82.6773 16.084-73.8511L16.084 3.52284Q16.084 12.3992 20.6277 16.9128Q25.1715 21.4264 34.078 21.4264ZM60.1944-0.759452Q54.3337-0.759452 51.0164-4.03659Q47.699-7.31373 47.699-14.0992L47.699-23.659Q47.699-27.5594 46.4877-29.0522Q45.2764-30.545 42.2506-31.4095Q40.3708-31.9121 39.7676-33.5758Q39.1645-35.2395 39.7676-36.8882Q40.3708-38.5368 42.2506-38.9892Q45.2764-39.8537 46.4877-41.3716Q47.699-42.8895 47.699-46.7899L47.699-56.3799Q47.699-63.1352 51.0164-66.4274Q54.3337-69.7196 60.1944-69.7196Q61.9938-69.7196 62.984-68.8501Q63.9742-67.9805 63.9742-66.6837Q63.9742-65.3869 63.1298-64.5626Q62.2854-63.7382 60.9685-63.7382Q57.5707-63.7382 55.7864-61.9188Q54.0021-60.0993 54.0021-55.4953L54.0021-45.473Q54.0021-41.0801 51.6549-38.1799Q49.3076-35.2798 45.3268-34.8676L45.3268-35.6417Q49.3076-35.2295 51.6549-32.274Q54.0021-29.3186 54.0021-24.9257L54.0021-14.9838Q54.0021-10.3497 55.7864-8.53017Q57.5707-6.71068 60.9685-6.71068Q62.2854-6.71068 63.1298-5.88635Q63.9742-5.06203 63.9742-3.76522Q63.9742-2.46842 62.984-1.61393Q61.9938-0.759452 60.1944-0.759452ZM85.004-0.759452Q83.1844-0.759452 82.1791-1.61393Q81.1738-2.46842 81.1738-3.76522Q81.1738-5.06203 82.0434-5.88635Q82.913-6.71068 84.2098-6.71068Q87.5774-6.71068 89.3617-8.53017Q91.1459-10.3497 91.1459-14.9838L91.1459-24.9257Q91.1459-29.3186 93.5334-32.274Q95.9209-35.2295 99.9017-35.6417L99.9017-34.8676Q95.9209-35.2798 93.5334-38.1799Q91.1459-41.0801 91.1459-45.473L91.1459-55.4953Q91.1459-60.0993 89.3617-61.9188Q87.5774-63.7382 84.2098-63.7382Q82.913-63.7382 82.0434-64.5626Q81.1738-65.3869 81.1738-66.6837Q81.1738-67.9805 82.1791-68.8501Q83.1844-69.7196 85.004-69.7196Q90.8143-69.7196 94.1468-66.4274Q97.4792-63.1352 97.4792-56.3799L97.4792-46.7899Q97.4792-42.8895 98.7408-41.3968Q100.002-39.904 102.978-38.9892Q104.777-38.5167 105.421-36.853Q106.064-35.1893 105.421-33.5507Q104.777-31.9121 102.978-31.4095Q99.9521-30.6455 98.7156-29.1024Q97.4792-27.5594 97.4792-23.659L97.4792-14.0992Q97.4792-7.31373 94.1468-4.03659Q90.8143-0.759452 85.004-0.759452Z"/>
  </g>
  <g id="Thin-L" transform="matrix(1 0 0 1 784.884 1556)">
   <path d="M32.7209 20.3407L110.349 20.3407Q118.553 20.3407 122.77 16.0483Q126.986 11.7559 126.986 3.71284L126.986-74.014Q126.986-82.057 122.77-86.3108Q118.553-90.5645 110.349-90.5645L32.7209-90.5645Q24.5201-90.5645 20.302-86.3495Q16.084-82.1344 16.084-74.014L16.084 3.71284Q16.084 11.9107 20.302 16.1257Q24.5201 20.3407 32.7209 20.3407ZM59.4344-1.49228Q54.1437-1.49228 51.0978-4.38944Q48.0519-7.28659 48.0519-13.3935L48.0519-24.1205Q48.0519-28.3465 46.6642-30.0157Q45.2764-31.6849 41.7892-32.7123Q40.5879-33.0521 40.2019-34.1594Q39.8159-35.2667 40.2019-36.3725Q40.5879-37.4783 41.7892-37.7407Q45.2764-38.768 46.6642-40.4759Q48.0519-42.1838 48.0519-46.4099L48.0519-57.1399Q48.0519-63.2438 51.0978-66.1424Q54.1437-69.0411 59.4344-69.0411Q60.3382-69.0411 60.9077-68.4837Q61.4772-67.9262 61.4772-67.1451Q61.4772-66.364 60.9584-65.8111Q60.4397-65.2582 59.5842-65.2582Q56.1322-65.2582 54.0358-63.303Q51.9393-61.3478 51.9393-56.2552L51.9393-45.3373Q51.9393-40.9172 49.7142-38.0578Q47.4891-35.1983 43.834-35.0847L43.834-35.4517Q47.4891-35.3381 49.7142-32.4369Q51.9393-29.5357 51.9393-25.1157L51.9393-14.2781Q51.9393-9.18256 54.0358-7.22736Q56.1322-5.27215 59.5842-5.27215Q60.4397-5.27215 60.9584-4.71925Q61.4772-4.16635 61.4772-3.38524Q61.4772-2.60413 60.9077-2.04821Q60.3382-1.49228 59.4344-1.49228ZM83.484-1.49228Q82.5059-1.49228 81.9348-2.04821Q81.3638-2.60413 81.3638-3.38524Q81.3638-4.16635 81.9213-4.71925Q82.4787-5.27215 83.2598-5.27215Q86.7088-5.27215 88.8052-7.22736Q90.9017-9.18256 90.9017-14.2781L90.9017-25.1157Q90.9017-29.5357 93.167-32.4369Q95.4323-35.3381 99.0874-35.4517L99.0874-35.0847Q95.4323-35.1983 93.167-38.0578Q90.9017-40.9172 90.9017-45.3373L90.9017-56.2552Q90.9017-61.3478 88.8052-63.303Q86.7088-65.2582 83.2598-65.2582Q82.4787-65.2582 81.9213-65.8111Q81.3638-66.364 81.3638-67.1451Q81.3638-67.9262 81.9348-68.4837Q82.5059-69.0411 83.484-69.0411Q88.6973-69.0411 91.7447-66.1424Q94.7921-63.2438 94.7921-57.1399L94.7921-46.4099Q94.7921-42.1838 96.2573-40.5146Q97.7224-38.8454 101.132-37.7407Q102.253-37.4039 102.679-36.2966Q103.106-35.1893 102.679-34.1207Q102.253-33.0521 101.132-32.7123Q97.645-31.8397 96.2186-30.0931Q94.7921-28.3465 94.7921-24.1205L94.7921-13.3935Q94.7921-7.28659 91.7447-4.38944Q88.6973-1.49228 83.484-1.49228Z"/>
  </g>
  <g id="Ultralight-L" transform="matrix(1 0 0 1 488.735 1556)">
   <path d="M32.0258 19.7847L109.918 19.7847Q117.747 19.7847 121.803 15.6313Q125.86 11.4778 125.86 3.81015L125.86-74.0974Q125.86-81.7651 121.803-85.8729Q117.747-89.9806 109.918-89.9806L32.0258-89.9806Q24.1864-89.9806 20.1352-85.9185Q16.084-81.8564 16.084-74.0974L16.084 3.81015Q16.084 11.6604 20.1352 15.7226Q24.1864 19.7847 32.0258 19.7847ZM59.0451-1.86764Q54.0464-1.86764 51.1395-4.57016Q48.2326-7.27268 48.2326-13.0321L48.2326-24.3568Q48.2326-28.7497 46.7545-30.5092Q45.2764-32.2688 41.5529-33.3796Q40.6991-33.6359 40.4243-34.4583Q40.1495-35.2806 40.4243-36.1084Q40.6991-36.9361 41.5529-37.1012Q45.2764-38.212 46.7545-40.0172Q48.2326-41.8224 48.2326-46.2153L48.2326-57.5291Q48.2326-63.2994 51.1395-65.9965Q54.0464-68.6935 59.0451-68.6935Q59.4901-68.6935 59.8442-68.296Q60.1982-67.8984 60.1982-67.3814Q60.1982-66.8645 59.8463-66.4506Q59.4944-66.0367 58.8752-66.0367Q55.3954-66.0367 53.1391-64.012Q50.8828-61.9873 50.8828-56.6445L50.8828-45.2678Q50.8828-40.8338 48.7202-37.9952Q46.5576-35.1566 43.0694-35.1959L43.0694-35.3544Q46.5576-35.3937 48.7202-32.5203Q50.8828-29.647 50.8828-25.213L50.8828-13.9167Q50.8828-8.58477 53.1391-6.56006Q55.3954-4.53535 58.8752-4.53535Q59.4944-4.53535 59.8463-4.12147Q60.1982-3.70758 60.1982-3.19061Q60.1982-2.67364 59.8442-2.27064Q59.4901-1.86764 59.0451-1.86764ZM82.7055-1.86764Q82.1583-1.86764 81.8097-2.27064Q81.4612-2.67364 81.4612-3.19061Q81.4612-3.70758 81.8587-4.12147Q82.2563-4.53535 82.7732-4.53535Q86.2639-4.53535 88.5203-6.56006Q90.7766-8.58477 90.7766-13.9167L90.7766-25.213Q90.7766-29.647 92.9793-32.5203Q95.1821-35.3937 98.6704-35.3544L98.6704-35.1959Q95.1821-35.1566 92.9793-37.9952Q90.7766-40.8338 90.7766-45.2678L90.7766-56.6445Q90.7766-61.9873 88.5203-64.012Q86.2639-66.0367 82.7732-66.0367Q82.2563-66.0367 81.8587-66.4506Q81.4612-66.8645 81.4612-67.3814Q81.4612-67.8984 81.8097-68.296Q82.1583-68.6935 82.7055-68.6935Q87.6129-68.6935 90.5144-65.9965Q93.4158-63.2994 93.4158-57.5291L93.4158-46.2153Q93.4158-41.8224 94.9852-40.0628Q96.5546-38.3033 100.187-37.1012Q100.96-36.8339 101.275-36.0116Q101.59-35.1893 101.275-34.4126Q100.96-33.6359 100.187-33.3796Q96.4633-32.4514 94.9396-30.6005Q93.4158-28.7497 93.4158-24.3568L93.4158-13.0321Q93.4158-7.27268 90.5144-4.57016Q87.6129-1.86764 82.7055-1.86764Z"/>
  </g>
  <g id="Black-M" transform="matrix(1 0 0 1 2872.54 1126)">
   <path d="M31.6183 13.203L90.1012 13.203Q99.1693 13.203 104.214 8.16134Q109.259 3.11973 109.259-5.93791L109.259-64.4591Q109.259-73.5167 104.214-78.5585Q99.1693-83.6003 90.1012-83.6003L31.6183-83.6003Q22.5558-83.6003 17.5084-78.5583Q12.4609-73.5164 12.4609-64.4591L12.4609-5.93791Q12.4609 3.11912 17.5084 8.16104Q22.5558 13.203 31.6183 13.203ZM51.2168-8.54937Q45.2812-8.54937 42.0332-12.0945Q38.7852-15.6396 38.7852-21.9919L38.7852-26.5118Q38.7852-27.7494 38.3588-28.2797Q37.9324-28.81 37.2259-28.9589Q34.1033-29.8121 33.0651-32.5051Q32.0269-35.198 33.0651-37.8882Q34.1033-40.5784 37.2259-41.3749Q37.9324-41.5237 38.3588-41.9682Q38.7852-42.4128 38.7852-43.7075L38.7852-48.3471Q38.7852-54.6939 42.0332-58.2417Q45.2812-61.7896 51.2168-61.7896Q54.3627-61.7896 56.2805-60.2935Q58.1984-58.7974 58.1984-56.3048Q58.1984-53.9264 56.8449-52.4957Q55.4913-51.065 53.3472-51.065Q51.6497-51.065 50.9185-50.137Q50.1873-49.2091 50.1873-47.6618L50.1873-42.9621Q50.1873-38.6844 47.4499-36.0076Q44.7125-33.3307 39.8443-32.8652L39.8443-37.7077Q44.7125-36.7283 47.4499-33.989Q50.1873-31.2497 50.1873-27.4288L50.1873-22.6772Q50.1873-21.1244 50.9185-20.1964Q51.6497-19.2685 53.3472-19.2685Q55.4913-19.2685 56.8449-17.8378Q58.1984-16.407 58.1984-14.0286Q58.1984-11.5361 56.2805-10.0427Q54.3627-8.54937 51.2168-8.54937ZM70.7373-8.54937Q67.5972-8.54937 65.6766-10.0427Q63.756-11.5361 63.756-14.0286Q63.756-16.407 65.0808-17.8378Q66.4057-19.2685 68.6127-19.2685Q70.2476-19.2685 71.0073-20.1964Q71.7671-21.1244 71.7671-22.6772L71.7671-27.4288Q71.7671-31.2497 74.4786-33.989Q77.19-36.7283 82.1153-37.7077L82.1153-32.8652Q77.19-33.3307 74.4786-36.0076Q71.7671-38.6844 71.7671-42.9621L71.7671-47.6618Q71.7671-49.2091 71.0073-50.137Q70.2476-51.065 68.6127-51.065Q66.4057-51.065 65.0808-52.4957Q63.756-53.9264 63.756-56.3048Q63.756-58.7974 65.6195-60.2935Q67.483-61.7896 70.7373-61.7896Q76.6161-61.7896 79.8954-58.2417Q83.1747-54.6939 83.1747-48.3471L83.1747-43.7075Q83.1747-42.4128 83.5723-41.9681Q83.9698-41.5234 84.7337-41.3749Q87.8511-40.6414 88.8919-37.9198Q89.9327-35.1983 88.8919-32.4481Q87.8511-29.6979 84.7337-28.9589Q83.9701-28.8094 83.5724-28.2794Q83.1747-27.7494 83.1747-26.5118L83.1747-21.9919Q83.1747-15.6396 79.8954-12.0945Q76.6161-8.54937 70.7373-8.54937Z"/>
  </g>
  <g id="Heavy-M" transform="matrix(1 0 0 1 2576.65 1126)">
   <path d="M30.7128 12.3923L89.3692 12.3923Q98.107 12.3923 102.864 7.64094Q107.621 2.88957 107.621-5.81086L107.621-64.5834Q107.621-73.2838 102.864-78.0339Q98.107-82.7841 89.3692-82.7841L30.7128-82.7841Q21.9913-82.7841 17.2261-78.0352Q12.4609-73.2862 12.4609-64.5834L12.4609-5.81086Q12.4609 2.89446 17.2261 7.64338Q21.9913 12.3923 30.7128 12.3923ZM50.3179-8.36758Q44.5748-8.36758 41.4216-11.7664Q38.2685-15.1652 38.2685-21.4218L38.2685-26.3429Q38.2685-27.9235 37.7636-28.5592Q37.2586-29.195 36.2764-29.4277Q33.3842-30.2106 32.4286-32.7057Q31.4731-35.2008 32.4286-37.6878Q33.3842-40.1748 36.2764-40.9116Q37.2586-41.1443 37.7636-41.7158Q38.2685-42.2874 38.2685-43.9115L38.2685-48.9361Q38.2685-55.1765 41.4216-58.5834Q44.5748-61.9904 50.3179-61.9904Q53.2652-61.9904 55.0125-60.6135Q56.7597-59.2366 56.7597-56.9714Q56.7597-54.7935 55.493-53.4846Q54.2264-52.1756 52.2368-52.1756Q50.3317-52.1756 49.5217-51.1666Q48.7117-50.1575 48.7117-48.2508L48.7117-43.0427Q48.7117-38.9778 46.1619-36.3927Q43.612-33.8075 39.0867-33.3049L39.0867-37.2438Q43.612-36.3485 46.1619-33.7023Q48.7117-31.0561 48.7117-27.3402L48.7117-22.1072Q48.7117-20.1842 49.5217-19.1751Q50.3317-18.1661 52.2368-18.1661Q54.2264-18.1661 55.493-16.8572Q56.7597-15.5482 56.7597-13.3703Q56.7597-11.1052 55.0125-9.73637Q53.2652-8.36758 50.3179-8.36758ZM69.95-8.36758Q67.0164-8.36758 65.2611-9.73637Q63.5058-11.1052 63.5058-13.3703Q63.5058-15.5482 64.7518-16.8572Q65.9978-18.1661 68.0449-18.1661Q69.8901-18.1661 70.7219-19.1751Q71.5537-20.1842 71.5537-22.1072L71.5537-27.3402Q71.5537-31.0561 74.0911-33.7023Q76.6285-36.3485 81.1974-37.2438L81.1974-33.3049Q76.6285-33.8075 74.0911-36.3927Q71.5537-38.9778 71.5537-43.0427L71.5537-48.2508Q71.5537-50.1575 70.7219-51.1666Q69.8901-52.1756 68.0449-52.1756Q65.9978-52.1756 64.7518-53.4846Q63.5058-54.7935 63.5058-56.9714Q63.5058-59.2366 65.2175-60.6135Q66.9292-61.9904 69.95-61.9904Q75.647-61.9904 78.8301-58.5834Q82.0131-55.1765 82.0131-48.9361L82.0131-43.9115Q82.0131-42.2874 82.4987-41.717Q82.9843-41.1467 84.0077-40.9116Q86.8812-40.2322 87.8461-37.7153Q88.811-35.1983 87.8461-32.6608Q86.8812-30.1233 84.0077-29.4277Q82.9819-29.1999 82.4975-28.5617Q82.0131-27.9235 82.0131-26.3429L82.0131-21.4218Q82.0131-15.1652 78.8301-11.7664Q75.647-8.36758 69.95-8.36758Z"/>
  </g>
  <g id="Bold-M" transform="matrix(1 0 0 1 2280.85 1126)">
   <path d="M29.6999 11.4855L88.5504 11.4855Q96.9187 11.4855 101.354 7.05878Q105.789 2.6321 105.789-5.66875L105.789-64.7224Q105.789-73.0233 101.354-77.4472Q96.9187-81.8711 88.5504-81.8711L29.6999-81.8711Q21.3597-81.8711 16.9103-77.4499Q12.4609-73.0288 12.4609-64.7224L12.4609-5.66875Q12.4609 2.64314 16.9103 7.0643Q21.3597 11.4855 29.6999 11.4855ZM49.3123-8.16422Q43.7845-8.16422 40.7375-11.3994Q37.6905-14.6346 37.6905-20.7841L37.6905-26.154Q37.6905-28.1182 37.0977-28.8719Q36.5049-29.6256 35.2142-29.9522Q32.5797-30.6563 31.7166-32.9301Q30.8535-35.2039 31.7166-37.4635Q32.5797-39.7232 35.2142-40.3933Q36.5049-40.7198 37.0977-41.4334Q37.6905-42.1471 37.6905-44.1398L37.6905-49.595Q37.6905-55.7164 40.7375-58.9657Q43.7845-62.215 49.3123-62.215Q52.0376-62.215 53.5939-60.9714Q55.1503-59.7278 55.1503-57.7171Q55.1503-55.7634 53.9808-54.5907Q52.8114-53.4181 50.9946-53.4181Q48.8573-53.4181 47.9592-52.3183Q47.061-51.2185 47.061-48.9097L47.061-43.1328Q47.061-39.3061 44.721-36.8235Q42.381-34.341 38.2392-33.7968L38.2392-36.7248Q42.381-35.9237 44.721-33.3816Q47.061-30.8395 47.061-27.2411L47.061-21.4695Q47.061-19.1325 47.9592-18.0327Q48.8573-16.9329 50.9946-16.9329Q52.8114-16.9329 53.9808-15.7602Q55.1503-14.5876 55.1503-12.6339Q55.1503-10.6231 53.5939-9.39367Q52.0376-8.16422 49.3123-8.16422ZM69.0693-8.16422Q66.3667-8.16422 64.7963-9.39367Q63.2258-10.6231 63.2258-12.6339Q63.2258-14.5876 64.3837-15.7602Q65.5417-16.9329 67.4097-16.9329Q69.4902-16.9329 70.4026-18.0327Q71.315-19.1325 71.315-21.4695L71.315-27.2411Q71.315-30.8395 73.6577-33.3816Q76.0003-35.9237 80.1706-36.7248L80.1706-33.7968Q76.0003-34.341 73.6577-36.8235Q71.315-39.3061 71.315-43.1328L71.315-48.9097Q71.315-51.2185 70.4026-52.3183Q69.4902-53.4181 67.4097-53.4181Q65.5417-53.4181 64.3837-54.5907Q63.2258-55.7634 63.2258-57.7171Q63.2258-59.7278 64.7677-60.9714Q66.3096-62.215 69.0693-62.215Q74.563-62.215 77.6384-58.9657Q80.7138-55.7164 80.7138-49.595L80.7138-44.1398Q80.7138-42.1471 81.2978-41.4362Q81.8819-40.7253 83.1956-40.3933Q85.7963-39.7745 86.6763-37.4864Q87.5563-35.1983 86.6763-32.8988Q85.7963-30.5992 83.1956-29.9522Q81.8763-29.6367 81.2951-28.8774Q80.7138-28.1182 80.7138-26.154L80.7138-20.7841Q80.7138-14.6346 77.6384-11.3994Q74.563-8.16422 69.0693-8.16422Z"/>
  </g>
  <g id="Semibold-M" transform="matrix(1 0 0 1 1984.77 1126)">
   <path d="M29.0015 10.8603L87.9858 10.8603Q96.0995 10.8603 100.313 6.65745Q104.526 2.45461 104.526-5.57077L104.526-64.8183Q104.526-72.8436 100.313-77.0427Q96.0995-81.2417 87.9858-81.2417L29.0015-81.2417Q20.9244-81.2417 16.6926-77.0465Q12.4609-72.8513 12.4609-64.8183L12.4609-5.57077Q12.4609 2.46989 16.6926 6.66509Q20.9244 10.8603 29.0015 10.8603ZM48.619-8.02403Q43.2397-8.02403 40.2658-11.1464Q37.292-14.2688 37.292-20.3445L37.292-26.0238Q37.292-28.2524 36.6387-29.0875Q35.9854-29.9225 34.4819-30.3137Q32.0252-30.9635 31.2258-33.0848Q30.4264-35.206 31.2258-37.3089Q32.0252-39.4119 34.4819-40.0359Q35.9854-40.4271 36.6387-41.2388Q37.292-42.0504 37.292-44.2972L37.292-50.0493Q37.292-56.0885 40.2658-59.2292Q43.2397-62.3698 48.619-62.3698Q51.1912-62.3698 52.616-61.2181Q54.0407-60.0665 54.0407-58.2311Q54.0407-56.432 52.9383-55.3533Q51.8359-54.2746 50.1383-54.2746Q47.8409-54.2746 46.882-53.1122Q45.9231-51.9499 45.9231-49.3639L45.9231-43.195Q45.9231-39.5324 43.7277-37.1205Q41.5323-34.7087 37.655-34.1359L37.655-36.3671Q41.5323-35.6308 43.7277-33.1605Q45.9231-30.6902 45.9231-27.1729L45.9231-21.0299Q45.9231-18.4074 46.882-17.2451Q47.8409-16.0827 50.1383-16.0827Q51.8359-16.0827 52.9383-15.004Q54.0407-13.9253 54.0407-12.1262Q54.0407-10.2908 52.616-9.15741Q51.1912-8.02403 48.619-8.02403ZM68.4622-8.02403Q65.9189-8.02403 64.4758-9.15741Q63.0328-10.2908 63.0328-12.1262Q63.0328-13.9253 64.13-15.004Q65.2272-16.0827 66.9718-16.0827Q69.2145-16.0827 70.1825-17.2451Q71.1505-18.4074 71.1505-21.0299L71.1505-27.1729Q71.1505-30.6902 73.3589-33.1605Q75.5673-35.6308 79.4627-36.3671L79.4627-34.1359Q75.5673-34.7087 73.3589-37.1205Q71.1505-39.5324 71.1505-43.195L71.1505-49.3639Q71.1505-51.9499 70.1825-53.1122Q69.2145-54.2746 66.9718-54.2746Q65.2272-54.2746 64.13-55.3533Q63.0328-56.432 63.0328-58.2311Q63.0328-60.0665 64.4577-61.2181Q65.8825-62.3698 68.4622-62.3698Q73.8157-62.3698 76.8169-59.2292Q79.8181-56.0885 79.8181-50.0493L79.8181-44.2972Q79.8181-42.0504 80.47-41.2426Q81.1218-40.4348 82.6358-40.0359Q85.0484-39.4589 85.8699-37.3286Q86.6913-35.1983 85.8699-33.0628Q85.0484-30.9272 82.6358-30.3137Q81.1142-29.9378 80.4661-29.0951Q79.8181-28.2524 79.8181-26.0238L79.8181-20.3445Q79.8181-14.2688 76.8169-11.1464Q73.8157-8.02403 68.4622-8.02403Z"/>
  </g>
  <g id="Medium-M" transform="matrix(1 0 0 1 1688.54 1126)">
   <path d="M28.472 10.3863L87.5578 10.3863Q95.4783 10.3863 99.5236 6.35315Q103.569 2.32003 103.569-5.49648L103.569-64.8909Q103.569-72.7075 99.5236-76.736Q95.4783-80.7644 87.5578-80.7644L28.472-80.7644Q20.5942-80.7644 16.5276-76.7406Q12.4609-72.7167 12.4609-64.8909L12.4609-5.49648Q12.4609 2.33852 16.5276 6.36239Q20.5942 10.3863 28.472 10.3863ZM48.0934-7.91773Q42.8266-7.91773 39.9082-10.9546Q36.9898-13.9914 36.9898-20.0112L36.9898-25.9251Q36.9898-28.3542 36.2906-29.2509Q35.5914-30.1476 33.9267-30.5879Q31.6047-31.1965 30.8536-33.2021Q30.1025-35.2076 30.8536-37.1917Q31.6047-39.1759 33.9267-39.765Q35.5914-40.2052 36.2906-41.0912Q36.9898-41.9771 36.9898-44.4165L36.9898-50.3937Q36.9898-56.3707 39.9082-59.429Q42.8266-62.4872 48.0934-62.4872Q50.5495-62.4872 51.8745-61.4052Q53.1995-60.3233 53.1995-58.6209Q53.1995-56.939 52.1478-55.9315Q51.0962-54.9241 49.489-54.9241Q47.0702-54.9241 46.0652-53.7143Q45.0603-52.5045 45.0603-49.7084L45.0603-43.2421Q45.0603-39.7039 42.9745-37.3457Q40.8888-34.9875 37.212-34.393L37.212-36.0958Q40.8888-35.4088 42.9745-32.9929Q45.0603-30.577 45.0603-27.1211L45.0603-20.6965Q45.0603-17.8577 46.0652-16.6479Q47.0702-15.4381 49.489-15.4381Q51.0962-15.4381 52.1478-14.4306Q53.1995-13.4231 53.1995-11.7412Q53.1995-10.0388 51.8745-8.97827Q50.5495-7.91773 48.0934-7.91773ZM68.0018-7.91773Q65.5793-7.91773 64.2329-8.97827Q62.8865-10.0388 62.8865-11.7412Q62.8865-13.4231 63.9376-14.4306Q64.9887-15.4381 66.6397-15.4381Q69.0055-15.4381 70.0156-16.6479Q71.0257-17.8577 71.0257-20.6965L71.0257-27.1211Q71.0257-30.577 73.1323-32.9929Q75.2389-35.4088 78.926-36.0958L78.926-34.393Q75.2389-34.9875 73.1323-37.3457Q71.0257-39.7039 71.0257-43.2421L71.0257-49.7084Q71.0257-52.5045 70.0156-53.7143Q69.0055-54.9241 66.6397-54.9241Q64.9887-54.9241 63.9376-55.9315Q62.8865-56.939 62.8865-58.6209Q62.8865-60.3233 64.2226-61.4052Q65.5587-62.4872 68.0018-62.4872Q73.2491-62.4872 76.194-59.429Q79.1389-56.3707 79.1389-50.3937L79.1389-44.4165Q79.1389-41.9771 79.8422-41.0958Q80.5455-40.2145 82.2113-39.765Q84.4813-39.2197 85.2584-37.209Q86.0354-35.1983 85.2584-33.1872Q84.4813-31.176 82.2113-30.5879Q80.5363-30.1661 79.8376-29.2601Q79.1389-28.3542 79.1389-25.9251L79.1389-20.0112Q79.1389-13.9914 76.194-10.9546Q73.2491-7.91773 68.0018-7.91773Z"/>
  </g>
  <g id="Regular-M" transform="matrix(1 0 0 1 1392.45 1126)">
   <path d="M27.7814 9.76797L86.9995 9.76797Q94.6681 9.76797 98.494 5.95622Q102.32 2.14448 102.32-5.39959L102.32-64.9857Q102.32-72.5298 98.494-76.3359Q94.6681-80.142 86.9995-80.142L27.7814-80.142Q20.1637-80.142 16.3123-76.3416Q12.4609-72.5412 12.4609-64.9857L12.4609-5.39959Q12.4609 2.16717 16.3123 5.96757Q20.1637 9.76797 27.7814 9.76797ZM47.4077-7.77908Q42.2878-7.77908 39.4418-10.7043Q36.5957-13.6296 36.5957-19.5764L36.5957-25.7963Q36.5957-28.4869 35.8366-29.4641Q35.0775-30.4412 33.2024-30.9455Q31.0562-31.5004 30.3681-33.3551Q29.6801-35.2097 30.3681-37.0388Q31.0562-38.868 33.2024-39.4116Q35.0775-39.9158 35.8366-40.8987Q36.5957-41.8815 36.5957-44.5721L36.5957-50.843Q36.5957-56.7388 39.4418-59.6896Q42.2878-62.6403 47.4077-62.6403Q49.7124-62.6403 50.9073-61.6493Q52.1021-60.6583 52.1021-59.1293Q52.1021-57.6003 51.1168-56.6858Q50.1314-55.7712 48.6421-55.7712Q46.0649-55.7712 44.9999-54.4995Q43.9348-53.2278 43.9348-50.1576L43.9348-43.3035Q43.9348-39.9277 41.9921-37.6395Q40.0494-35.3512 36.6342-34.7284L36.6342-35.742Q40.0494-35.1191 41.9921-32.7742Q43.9348-30.4293 43.9348-27.0535L43.9348-20.2618Q43.9348-17.1406 44.9999-15.8689Q46.0649-14.5972 48.6421-14.5972Q50.1314-14.5972 51.1168-13.6827Q52.1021-12.7681 52.1021-11.2391Q52.1021-9.71014 50.9073-8.74461Q49.7124-7.77908 47.4077-7.77908ZM67.4014-7.77908Q65.1363-7.77908 63.916-8.74461Q62.6956-9.71014 62.6956-11.2391Q62.6956-12.7681 63.6866-13.6827Q64.6777-14.5972 66.2066-14.5972Q68.7328-14.5972 69.7979-15.8689Q70.8629-17.1406 70.8629-20.2618L70.8629-27.0535Q70.8629-30.4293 72.8368-32.7742Q74.8106-35.1191 78.2259-35.742L78.2259-34.7284Q74.8106-35.3512 72.8368-37.6395Q70.8629-39.9277 70.8629-43.3035L70.8629-50.1576Q70.8629-53.2278 69.7979-54.4995Q68.7328-55.7712 66.2066-55.7712Q64.6777-55.7712 63.6866-56.6858Q62.6956-57.6003 62.6956-59.1293Q62.6956-60.6583 63.916-61.6493Q65.1363-62.6403 67.4014-62.6403Q72.51-62.6403 75.3815-59.6896Q78.253-56.7388 78.253-50.843L78.253-44.5721Q78.253-41.8815 79.0234-40.9043Q79.7939-39.9272 81.6576-39.4116Q83.7416-38.9076 84.4608-37.053Q85.18-35.1983 84.4608-33.3494Q83.7416-31.5004 81.6576-30.9455Q79.7825-30.4639 79.0178-29.4754Q78.253-28.4869 78.253-25.7963L78.253-19.5764Q78.253-13.6296 75.3815-10.7043Q72.51-7.77908 67.4014-7.77908Z"/>
  </g>
  <g id="Light-M" transform="matrix(1 0 0 1 1096.49 1126)">
   <path d="M26.8614 9.03201L86.4291 9.03201Q93.601 9.03201 97.2153 5.40425Q100.83 1.7765 100.83-5.27079L100.83-65.0961Q100.83-72.1434 97.2153-75.7563Q93.601-79.3692 86.4291-79.3692L26.8614-79.3692Q19.7221-79.3692 16.0915-75.7712Q12.4609-72.1732 12.4609-65.0961L12.4609-5.27079Q12.4609 1.83599 16.0915 5.434Q19.7221 9.03201 26.8614 9.03201ZM46.8926-8.27585Q42.159-8.27585 39.4969-10.9435Q36.8349-13.6112 36.8349-19.098L36.8349-26.1091Q36.8349-29.0205 35.9562-30.1173Q35.0775-31.214 32.8897-31.8286Q31.2034-32.2732 30.6625-33.7506Q30.1217-35.2281 30.6625-36.6893Q31.2034-38.1504 32.8897-38.5653Q35.0775-39.1799 35.9562-40.2915Q36.8349-41.4031 36.8349-44.3145L36.8349-51.3581Q36.8349-56.8124 39.4969-59.4964Q42.159-62.1803 46.8926-62.1803Q48.5901-62.1803 49.4998-61.4009Q50.4094-60.6215 50.4094-59.4421Q50.4094-58.2627 49.6449-57.5321Q48.8803-56.8015 47.7037-56.8015Q45.0898-56.8015 43.8131-55.4379Q42.5365-54.0742 42.5365-50.6728L42.5365-43.2115Q42.5365-39.8173 40.6766-37.5567Q38.8167-35.296 35.6223-34.8756L35.6223-35.6132Q38.8167-35.1927 40.6766-32.8846Q42.5365-30.5765 42.5365-27.1823L42.5365-19.7834Q42.5365-16.3494 43.8131-14.9858Q45.0898-13.6221 47.7037-13.6221Q48.8803-13.6221 49.6449-12.8915Q50.4094-12.1609 50.4094-10.9815Q50.4094-9.80214 49.4998-9.03899Q48.5901-8.27585 46.8926-8.27585ZM66.371-8.27585Q64.6763-8.27585 63.7504-9.03899Q62.8244-9.80214 62.8244-10.9815Q62.8244-12.1609 63.6038-12.8915Q64.3833-13.6221 65.5627-13.6221Q68.1441-13.6221 69.4207-14.9858Q70.6973-16.3494 70.6973-19.7834L70.6973-27.1823Q70.6973-30.5765 72.5884-32.8846Q74.4794-35.1927 77.6739-35.6132L77.6739-34.8756Q74.4794-35.296 72.5884-37.5567Q70.6973-39.8173 70.6973-43.2115L70.6973-50.6728Q70.6973-54.0742 69.4207-55.4379Q68.1441-56.8015 65.5627-56.8015Q64.3833-56.8015 63.6038-57.5321Q62.8244-58.2627 62.8244-59.4421Q62.8244-60.6215 63.7504-61.4009Q64.6763-62.1803 66.371-62.1803Q71.0749-62.1803 73.7532-59.4964Q76.4315-56.8124 76.4315-51.3581L76.4315-44.3145Q76.4315-41.4031 77.3399-40.3064Q78.2484-39.2096 80.4065-38.5653Q82.0305-38.1532 82.6025-36.6758Q83.1745-35.1983 82.6025-33.7358Q82.0305-32.2732 80.4065-31.8286Q78.2186-31.2735 77.325-30.147Q76.4315-29.0205 76.4315-26.1091L76.4315-19.098Q76.4315-13.6112 73.7532-10.9435Q71.0749-8.27585 66.371-8.27585Z"/>
  </g>
  <g id="Thin-M" transform="matrix(1 0 0 1 800.76 1126)">
   <path d="M25.6447 8.05864L85.6747 8.05864Q92.1896 8.05864 95.5241 4.67423Q98.8585 1.28982 98.8585-5.10045L98.8585-65.2421Q98.8585-71.6324 95.5241-74.9898Q92.1896-78.3472 85.6747-78.3472L25.6447-78.3472Q19.1381-78.3472 15.7995-75.0168Q12.4609-71.6865 12.4609-65.2421L12.4609-5.10045Q12.4609 1.39797 15.7995 4.72831Q19.1381 8.05864 25.6447 8.05864ZM46.2112-8.93287Q41.9886-8.93287 39.57-11.2599Q37.1513-13.5868 37.1513-18.4653L37.1513-26.5228Q37.1513-29.7262 36.1144-30.9811Q35.0775-32.236 32.476-32.9966Q31.3981-33.2952 31.0519-34.2738Q30.7057-35.2524 31.0519-36.2269Q31.3981-37.2014 32.476-37.4459Q35.0775-38.2065 36.1144-39.4885Q37.1513-40.7704 37.1513-43.9739L37.1513-52.0395Q37.1513-56.9098 39.57-59.2409Q41.9886-61.572 46.2112-61.572Q47.1057-61.572 47.6382-61.0724Q48.1707-60.5728 48.1707-59.8558Q48.1707-59.1387 47.6981-58.6515Q47.2256-58.1642 46.4627-58.1642Q43.8001-58.1642 42.2436-56.6789Q40.6871-55.1936 40.6871-51.3541L40.6871-43.0899Q40.6871-39.6713 38.9367-37.4472Q37.1863-35.223 34.2839-35.0702L34.2839-35.4428Q37.1863-35.29 38.9367-33.0306Q40.6871-30.7712 40.6871-27.3527L40.6871-19.1507Q40.6871-15.303 42.2436-13.8177Q43.8001-12.3324 46.4627-12.3324Q47.2256-12.3324 47.6981-11.8451Q48.1707-11.3579 48.1707-10.6409Q48.1707-9.92381 47.6382-9.42834Q47.1057-8.93287 46.2112-8.93287ZM65.0083-8.93287Q64.068-8.93287 63.5314-9.42834Q62.9948-9.92381 62.9948-10.6409Q62.9948-11.3579 63.4943-11.8451Q63.9939-12.3324 64.711-12.3324Q67.3654-12.3324 68.9219-13.8177Q70.4783-15.303 70.4783-19.1507L70.4783-27.3527Q70.4783-30.7712 72.2599-33.0306Q74.0414-35.29 76.9439-35.4428L76.9439-35.0702Q74.0414-35.223 72.2599-37.4472Q70.4783-39.6713 70.4783-43.0899L70.4783-51.3541Q70.4783-55.1936 68.9219-56.6789Q67.3654-58.1642 64.711-58.1642Q63.9939-58.1642 63.4943-58.6515Q62.9948-59.1387 62.9948-59.8558Q62.9948-60.5728 63.5314-61.0724Q64.068-61.572 65.0083-61.572Q69.1768-61.572 71.5996-59.2409Q74.0224-56.9098 74.0224-52.0395L74.0224-43.9739Q74.0224-40.7704 75.1133-39.5155Q76.2043-38.2606 78.7518-37.4459Q79.7674-37.1555 80.1447-36.1769Q80.522-35.1983 80.1447-34.2468Q79.7674-33.2952 78.7518-32.9966Q76.1502-32.3442 75.0863-31.0352Q74.0224-29.7262 74.0224-26.5228L74.0224-18.4653Q74.0224-13.5868 71.5996-11.2599Q69.1768-8.93287 65.0083-8.93287Z"/>
  </g>
  <g id="Ultralight-M" transform="matrix(1 0 0 1 504.553 1126)">
   <path d="M25.0215 7.56009L85.2884 7.56009Q91.4667 7.56009 94.6578 4.30031Q97.8489 1.04054 97.8489-5.01321L97.8489-65.3169Q97.8489-71.3707 94.6578-74.5972Q91.4667-77.8237 85.2884-77.8237L25.0215-77.8237Q18.8389-77.8237 15.6499-74.6305Q12.4609-71.4372 12.4609-65.3169L12.4609-5.01321Q12.4609 1.17363 15.6499 4.36686Q18.8389 7.56009 25.0215 7.56009ZM45.8622-9.2694Q41.9014-9.2694 39.6073-11.4219Q37.3133-13.5744 37.3133-18.1413L37.3133-26.7346Q37.3133-30.0876 36.1954-31.4236Q35.0775-32.7595 32.2641-33.5949Q31.4978-33.8187 31.2513-34.5418Q31.0048-35.2649 31.2513-35.9901Q31.4978-36.7153 32.2641-36.8726Q35.0775-37.7079 36.1954-39.0772Q37.3133-40.4464 37.3133-43.7994L37.3133-52.3885Q37.3133-56.9596 39.6073-59.11Q41.9014-61.2604 45.8622-61.2604Q46.3454-61.2604 46.6847-60.9041Q47.024-60.5479 47.024-60.0676Q47.024-59.5874 46.701-59.2248Q46.3781-58.8622 45.827-58.8622Q43.1395-58.8622 41.4397-57.3146Q39.7399-55.7669 39.7399-51.7031L39.7399-43.0275Q39.7399-39.5965 38.0455-37.3911Q36.3512-35.1856 33.5984-35.1699L33.5984-35.3556Q36.3512-35.3399 38.0455-33.1054Q39.7399-30.8709 39.7399-27.4399L39.7399-18.8266Q39.7399-14.7671 41.4397-13.2194Q43.1395-11.6718 45.827-11.6718Q46.3781-11.6718 46.701-11.3092Q47.024-10.9466 47.024-10.4664Q47.024-9.98613 46.6847-9.62776Q46.3454-9.2694 45.8622-9.2694ZM64.3103-9.2694Q63.7564-9.2694 63.4192-9.62776Q63.082-9.98613 63.082-10.4664Q63.082-10.9466 63.4383-11.3092Q63.7945-11.6718 64.2747-11.6718Q66.9665-11.6718 68.6664-13.2194Q70.3662-14.7671 70.3662-18.8266L70.3662-27.4399Q70.3662-30.8709 72.0916-33.1054Q73.8171-35.3399 76.5699-35.3556L76.5699-35.1699Q73.8171-35.1856 72.0916-37.3911Q70.3662-39.5965 70.3662-43.0275L70.3662-51.7031Q70.3662-55.7669 68.6664-57.3146Q66.9665-58.8622 64.2747-58.8622Q63.7945-58.8622 63.4383-59.2248Q63.082-59.5874 63.082-60.0676Q63.082-60.5479 63.4192-60.9041Q63.7564-61.2604 64.3103-61.2604Q68.2046-61.2604 70.4966-59.11Q72.7885-56.9596 72.7885-52.3885L72.7885-43.7994Q72.7885-40.4464 73.9729-39.1104Q75.1573-37.7745 77.9042-36.8726Q78.6082-36.6445 78.8859-35.9214Q79.1635-35.1983 78.8859-34.5085Q78.6082-33.8187 77.9042-33.5949Q75.0908-32.8926 73.9396-31.4901Q72.7885-30.0876 72.7885-26.7346L72.7885-18.1413Q72.7885-13.5744 70.4966-11.4219Q68.2046-9.2694 64.3103-9.2694Z"/>
  </g>
  <g id="Black-S" transform="matrix(1 0 0 1 2885.5 696)">
   <path d="M25 2.92969L70.8008 2.92969Q77.9785 2.92969 82.0068-1.09863Q86.0352-5.12695 86.0352-12.3047L86.0352-58.1055Q86.0352-65.2832 82.0068-69.3115Q77.9785-73.3398 70.8008-73.3398L25-73.3398Q17.8223-73.3398 13.7939-69.3115Q9.76562-65.2832 9.76562-58.1055L9.76562-12.3047Q9.76562-5.12695 13.7939-1.09863Q17.8223 2.92969 25 2.92969ZM40.3809-14.4043Q35.6934-14.4043 33.1299-17.2119Q30.5664-20.0195 30.5664-25L30.5664-28.4668Q30.5664-29.3457 30.249-29.7363Q29.9316-30.127 29.4434-30.2246Q26.9531-30.9082 26.123-33.0566Q25.293-35.2051 26.123-37.3535Q26.9531-39.502 29.4434-40.1367Q29.9316-40.2344 30.249-40.5518Q30.5664-40.8691 30.5664-41.7969L30.5664-45.3613Q30.5664-50.3418 33.1299-53.1494Q35.6934-55.957 40.3809-55.957Q42.8711-55.957 44.4092-54.7607Q45.9473-53.5645 45.9473-51.5625Q45.9473-49.6582 44.873-48.5107Q43.7988-47.3633 42.0898-47.3633Q40.8203-47.3633 40.2588-46.6553Q39.6973-45.9473 39.6973-44.8242L39.6973-41.2598Q39.6973-37.8418 37.5-35.7178Q35.3027-33.5938 31.3965-33.252L31.3965-37.3047Q35.3027-36.5234 37.5-34.3506Q39.6973-32.1777 39.6973-29.1504L39.6973-25.5371Q39.6973-24.4141 40.2588-23.7061Q40.8203-22.998 42.0898-22.998Q43.7988-22.998 44.873-21.8506Q45.9473-20.7031 45.9473-18.7988Q45.9473-16.7969 44.4092-15.6006Q42.8711-14.4043 40.3809-14.4043ZM55.6152-14.4043Q53.125-14.4043 51.5869-15.6006Q50.0488-16.7969 50.0488-18.7988Q50.0488-20.7031 51.0986-21.8506Q52.1484-22.998 53.9062-22.998Q55.127-22.998 55.7129-23.7061Q56.2988-24.4141 56.2988-25.5371L56.2988-29.1504Q56.2988-32.1777 58.4717-34.3506Q60.6445-36.5234 64.5996-37.3047L64.5996-33.252Q60.6445-33.5938 58.4717-35.7178Q56.2988-37.8418 56.2988-41.2598L56.2988-44.8242Q56.2988-45.9473 55.7129-46.6553Q55.127-47.3633 53.9062-47.3633Q52.1484-47.3633 51.0986-48.5107Q50.0488-49.6582 50.0488-51.5625Q50.0488-53.5645 51.5381-54.7607Q53.0273-55.957 55.6152-55.957Q60.2539-55.957 62.8418-53.1494Q65.4297-50.3418 65.4297-45.3613L65.4297-41.7969Q65.4297-40.8691 65.7227-40.5518Q66.0156-40.2344 66.5527-40.1367Q69.043-39.5508 69.873-37.3779Q70.7031-35.2051 69.873-33.0078Q69.043-30.8105 66.5527-30.2246Q66.0156-30.127 65.7227-29.7363Q65.4297-29.3457 65.4297-28.4668L65.4297-25Q65.4297-20.0195 62.8418-17.2119Q60.2539-14.4043 55.6152-14.4043Z"/>
  </g>
  <g id="Heavy-S" transform="matrix(1 0 0 1 2589.39 696)">
   <path d="M24.3431 2.33042L70.2476 2.33042Q77.2064 2.33042 81.0157-1.47318Q84.8251-5.27677 84.8251-12.2125L84.8251-58.1977Q84.8251-65.1334 81.0157-68.937Q77.2064-72.7406 70.2476-72.7406L24.3431-72.7406Q17.3959-72.7406 13.5807-68.937Q9.76562-65.1334 9.76562-58.1977L9.76562-12.2125Q9.76562-5.27677 13.5807-1.47318Q17.3959 2.33042 24.3431 2.33042ZM39.6779-14.1853Q35.1056-14.1853 32.5998-16.9008Q30.0939-19.6162 30.0939-24.5736L30.0939-28.2824Q30.0939-29.4264 29.7247-29.8919Q29.3554-30.3574 28.6712-30.5127Q26.3193-31.1502 25.5411-33.1776Q24.7628-35.2051 25.5411-37.2267Q26.3193-39.2484 28.6712-39.8486Q29.3554-40.0039 29.7247-40.4135Q30.0939-40.823 30.0939-42.0043L30.0939-45.7993Q30.0939-50.7452 32.5998-53.4663Q35.1056-56.1875 39.6779-56.1875Q42.0759-56.1875 43.5045-55.0661Q44.9331-53.9448 44.9331-52.0926Q44.9331-50.3151 43.905-49.2483Q42.8769-48.1815 41.2601-48.1815Q39.8177-48.1815 39.2158-47.4159Q38.614-46.6503 38.614-45.2621L38.614-41.3404Q38.614-38.1069 36.5665-36.0577Q34.5191-34.0086 30.8779-33.6092L30.8779-36.9244Q34.5191-36.1892 36.5665-34.0913Q38.614-31.9933 38.614-29.0582L38.614-25.1107Q38.614-23.7111 39.2158-22.9454Q39.8177-22.1798 41.2601-22.1798Q42.8769-22.1798 43.905-21.113Q44.9331-20.0462 44.9331-18.2687Q44.9331-16.4166 43.5045-15.3009Q42.0759-14.1853 39.6779-14.1853ZM55.0736-14.1853Q52.6871-14.1853 51.2527-15.3009Q49.8183-16.4166 49.8183-18.2687Q49.8183-20.0462 50.8278-21.113Q51.8373-22.1798 53.5029-22.1798Q54.8965-22.1798 55.517-22.9454Q56.1375-23.7111 56.1375-25.1107L56.1375-29.0582Q56.1375-31.9933 58.172-34.0913Q60.2066-36.1892 63.8851-36.9244L63.8851-33.6092Q60.2066-34.0086 58.172-36.0577Q56.1375-38.1069 56.1375-41.3404L56.1375-45.2621Q56.1375-46.6503 55.517-47.4159Q54.8965-48.1815 53.5029-48.1815Q51.8373-48.1815 50.8278-49.2483Q49.8183-50.3151 49.8183-52.0926Q49.8183-53.9448 51.2154-55.0661Q52.6125-56.1875 55.0736-56.1875Q59.6085-56.1875 62.1388-53.4663Q64.6691-50.7452 64.6691-45.7993L64.6691-42.0043Q64.6691-40.823 65.0197-40.4135Q65.3703-40.0039 66.0918-39.8486Q68.4322-39.2972 69.2162-37.2512Q70.0001-35.2051 69.2162-33.1403Q68.4322-31.0756 66.0918-30.5127Q65.3703-30.3574 65.0197-29.8919Q64.6691-29.4264 64.6691-28.2824L64.6691-24.5736Q64.6691-19.6162 62.1388-16.9008Q59.6085-14.1853 55.0736-14.1853Z"/>
  </g>
  <g id="Bold-S" transform="matrix(1 0 0 1 2293.36 696)">
   <path d="M23.6084 1.66016L69.6289 1.66016Q76.3428 1.66016 79.9072-1.89209Q83.4717-5.44434 83.4717-12.1094L83.4717-58.3008Q83.4717-64.9658 79.9072-68.5181Q76.3428-72.0703 69.6289-72.0703L23.6084-72.0703Q16.9189-72.0703 13.3423-68.5181Q9.76562-64.9658 9.76562-58.3008L9.76562-12.1094Q9.76562-5.44434 13.3423-1.89209Q16.9189 1.66016 23.6084 1.66016ZM38.8916-13.9404Q34.4482-13.9404 32.0068-16.5527Q29.5654-19.165 29.5654-24.0967L29.5654-28.0762Q29.5654-29.5166 29.1382-30.0659Q28.7109-30.6152 27.8076-30.835Q25.6104-31.4209 24.8901-33.313Q24.1699-35.2051 24.8901-37.085Q25.6104-38.9648 27.8076-39.5264Q28.7109-39.7461 29.1382-40.2588Q29.5654-40.7715 29.5654-42.2363L29.5654-46.2891Q29.5654-51.1963 32.0068-53.8208Q34.4482-56.4453 38.8916-56.4453Q41.1865-56.4453 42.4927-55.4077Q43.7988-54.3701 43.7988-52.6855Q43.7988-51.0498 42.8223-50.0732Q41.8457-49.0967 40.332-49.0967Q38.6963-49.0967 38.0493-48.2666Q37.4023-47.4365 37.4023-45.752L37.4023-41.4307Q37.4023-38.4033 35.5225-36.438Q33.6426-34.4727 30.2979-34.0088L30.2979-36.499Q33.6426-35.8154 35.5225-33.8013Q37.4023-31.7871 37.4023-28.9551L37.4023-24.6338Q37.4023-22.9248 38.0493-22.0947Q38.6963-21.2646 40.332-21.2646Q41.8457-21.2646 42.8223-20.2881Q43.7988-19.3115 43.7988-17.6758Q43.7988-15.9912 42.4927-14.9658Q41.1865-13.9404 38.8916-13.9404ZM54.4678-13.9404Q52.1973-13.9404 50.8789-14.9658Q49.5605-15.9912 49.5605-17.6758Q49.5605-19.3115 50.5249-20.2881Q51.4893-21.2646 53.0518-21.2646Q54.6387-21.2646 55.2979-22.0947Q55.957-22.9248 55.957-24.6338L55.957-28.9551Q55.957-31.7871 57.8369-33.8013Q59.7168-35.8154 63.0859-36.499L63.0859-34.0088Q59.7168-34.4727 57.8369-36.438Q55.957-38.4033 55.957-41.4307L55.957-45.752Q55.957-47.4365 55.2979-48.2666Q54.6387-49.0967 53.0518-49.0967Q51.4893-49.0967 50.5249-50.0732Q49.5605-51.0498 49.5605-52.6855Q49.5605-54.3701 50.8545-55.4077Q52.1484-56.4453 54.4678-56.4453Q58.8867-56.4453 61.3525-53.8208Q63.8184-51.1963 63.8184-46.2891L63.8184-42.2363Q63.8184-40.7715 64.2334-40.2588Q64.6484-39.7461 65.5762-39.5264Q67.749-39.0137 68.4814-37.1094Q69.2139-35.2051 68.4814-33.2886Q67.749-31.3721 65.5762-30.835Q64.6484-30.6152 64.2334-30.0659Q63.8184-29.5166 63.8184-28.0762L63.8184-24.0967Q63.8184-19.165 61.3525-16.5527Q58.8867-13.9404 54.4678-13.9404Z"/>
  </g>
  <g id="Semibold-S" transform="matrix(1 0 0 1 1997.11 696)">
   <path d="M23.1019 1.19805L69.2023 1.19805Q75.7474 1.19805 79.143-2.18091Q82.5386-5.55986 82.5386-12.0383L82.5386-58.3719Q82.5386-64.8503 79.143-68.2292Q75.7474-71.6082 69.2023-71.6082L23.1019-71.6082Q16.5901-71.6082 13.1779-68.2292Q9.76562-64.8503 9.76562-58.3719L9.76562-12.0383Q9.76562-5.55986 13.1779-2.18091Q16.5901 1.19805 23.1019 1.19805ZM38.3495-13.7716Q33.995-13.7716 31.598-16.3128Q29.2011-18.854 29.2011-23.7679L29.2011-27.934Q29.2011-29.5788 28.7338-30.1859Q28.2666-30.793 27.2122-31.0571Q25.1216-31.6075 24.4414-33.4063Q23.7611-35.2051 24.4414-36.9872Q25.1216-38.7693 27.2122-39.3042Q28.2666-39.5684 28.7338-40.1521Q29.2011-40.7359 29.2011-42.3963L29.2011-46.6268Q29.2011-51.5073 31.598-54.0652Q33.995-56.623 38.3495-56.623Q40.5733-56.623 41.7951-55.6432Q43.0168-54.6634 43.0168-53.0943Q43.0168-51.5563 42.0758-50.642Q41.1348-49.7276 39.6922-49.7276Q37.9231-49.7276 37.2451-48.8531Q36.567-47.9786 36.567-46.0896L36.567-41.4929Q36.567-38.6077 34.8026-36.7001Q33.0383-34.7926 29.8979-34.2843L29.8979-36.2058Q33.0383-35.5577 34.8026-33.6013Q36.567-31.6449 36.567-28.884L36.567-24.305Q36.567-22.3827 37.2451-21.5082Q37.9231-20.6337 39.6922-20.6337Q41.1348-20.6337 42.0758-19.7193Q43.0168-18.805 43.0168-17.267Q43.0168-15.6979 41.7951-14.7348Q40.5733-13.7716 38.3495-13.7716ZM54.0501-13.7716Q51.8596-13.7716 50.6212-14.7348Q49.3828-15.6979 49.3828-17.267Q49.3828-18.805 50.3161-19.7193Q51.2493-20.6337 52.7407-20.6337Q54.4609-20.6337 55.1468-21.5082Q55.8326-22.3827 55.8326-24.305L55.8326-28.884Q55.8326-31.6449 57.6059-33.6013Q59.3791-35.5577 62.535-36.2058L62.535-34.2843Q59.3791-34.7926 57.6059-36.7001Q55.8326-38.6077 55.8326-41.4929L55.8326-46.0896Q55.8326-47.9786 55.1468-48.8531Q54.4609-49.7276 52.7407-49.7276Q51.2493-49.7276 50.3161-50.642Q49.3828-51.5563 49.3828-53.0943Q49.3828-54.6634 50.6057-55.6432Q51.8285-56.623 54.0501-56.623Q58.3891-56.623 60.8104-54.0652Q63.2318-51.5073 63.2318-46.6268L63.2318-42.3963Q63.2318-40.7359 63.6913-40.1521Q64.1508-39.5684 65.2207-39.3042Q67.278-38.8182 67.9749-37.0116Q68.6718-35.2051 67.9749-33.3908Q67.278-31.5765 65.2207-31.0571Q64.1508-30.793 63.6913-30.1859Q63.2318-29.5788 63.2318-27.934L63.2318-23.7679Q63.2318-18.854 60.8104-16.3128Q58.3891-13.7716 54.0501-13.7716Z"/>
  </g>
  <g id="Medium-S" transform="matrix(1 0 0 1 1700.76 696)">
   <path d="M22.7178 0.847656L68.8789 0.847656Q75.2959 0.847656 78.5635-2.3999Q81.8311-5.64746 81.8311-11.9844L81.8311-58.4258Q81.8311-64.7627 78.5635-68.0103Q75.2959-71.2578 68.8789-71.2578L22.7178-71.2578Q16.3408-71.2578 13.0532-68.0103Q9.76562-64.7627 9.76562-58.4258L9.76562-11.9844Q9.76562-5.64746 13.0532-2.3999Q16.3408 0.847656 22.7178 0.847656ZM37.9385-13.6436Q33.6514-13.6436 31.2881-16.1309Q28.9248-18.6182 28.9248-23.5186L28.9248-27.8262Q28.9248-29.626 28.4272-30.2769Q27.9297-30.9277 26.7607-31.2256Q24.751-31.749 24.1011-33.4771Q23.4512-35.2051 24.1011-36.9131Q24.751-38.6211 26.7607-39.1357Q27.9297-39.4336 28.4272-40.0713Q28.9248-40.709 28.9248-42.5176L28.9248-46.8828Q28.9248-51.7432 31.2881-54.2505Q33.6514-56.7578 37.9385-56.7578Q40.1084-56.7578 41.2661-55.8218Q42.4238-54.8857 42.4238-53.4043Q42.4238-51.9404 41.5098-51.0732Q40.5957-50.2061 39.207-50.2061Q37.3369-50.2061 36.6353-49.2979Q35.9336-48.3896 35.9336-46.3457L35.9336-41.54Q35.9336-38.7627 34.2568-36.8989Q32.5801-35.0352 29.5947-34.4932L29.5947-35.9834Q32.5801-35.3623 34.2568-33.4497Q35.9336-31.5371 35.9336-28.8301L35.9336-24.0557Q35.9336-21.9717 36.6353-21.0635Q37.3369-20.1553 39.207-20.1553Q40.5957-20.1553 41.5098-19.2881Q42.4238-18.4209 42.4238-16.957Q42.4238-15.4756 41.2661-14.5596Q40.1084-13.6436 37.9385-13.6436ZM53.7334-13.6436Q51.6035-13.6436 50.4258-14.5596Q49.248-15.4756 49.248-16.957Q49.248-18.4209 50.1577-19.2881Q51.0674-20.1553 52.5049-20.1553Q54.3262-20.1553 55.0322-21.0635Q55.7383-21.9717 55.7383-24.0557L55.7383-28.8301Q55.7383-31.5371 57.4307-33.4497Q59.123-35.3623 62.1172-35.9834L62.1172-34.4932Q59.123-35.0352 57.4307-36.8989Q55.7383-38.7627 55.7383-41.54L55.7383-46.3457Q55.7383-48.3896 55.0322-49.2979Q54.3262-50.2061 52.5049-50.2061Q51.0674-50.2061 50.1577-51.0732Q49.248-51.9404 49.248-53.4043Q49.248-54.8857 50.417-55.8218Q51.5859-56.7578 53.7334-56.7578Q58.0117-56.7578 60.3994-54.2505Q62.7871-51.7432 62.7871-46.8828L62.7871-42.5176Q62.7871-40.709 63.2803-40.0713Q63.7734-39.4336 64.9512-39.1357Q66.9209-38.6699 67.5908-36.9375Q68.2607-35.2051 67.5908-33.4683Q66.9209-31.7314 64.9512-31.2256Q63.7734-30.9277 63.2803-30.2769Q62.7871-29.626 62.7871-27.8262L62.7871-23.5186Q62.7871-18.6182 60.3994-16.1309Q58.0117-13.6436 53.7334-13.6436Z"/>
  </g>
  <g id="Regular-S" transform="matrix(1 0 0 1 1404.51 696)">
   <path d="M22.2168 0.390625L68.457 0.390625Q74.707 0.390625 77.8076-2.68555Q80.9082-5.76172 80.9082-11.9141L80.9082-58.4961Q80.9082-64.6484 77.8076-67.7246Q74.707-70.8008 68.457-70.8008L22.2168-70.8008Q16.0156-70.8008 12.8906-67.7246Q9.76562-64.6484 9.76562-58.4961L9.76562-11.9141Q9.76562-5.76172 12.8906-2.68555Q16.0156 0.390625 22.2168 0.390625ZM37.4023-13.4766Q33.2031-13.4766 30.8838-15.8936Q28.5645-18.3105 28.5645-23.1934L28.5645-27.6855Q28.5645-29.6875 28.0273-30.3955Q27.4902-31.1035 26.1719-31.4453Q24.2676-31.9336 23.6572-33.5693Q23.0469-35.2051 23.6572-36.8164Q24.2676-38.4277 26.1719-38.916Q27.4902-39.2578 28.0273-39.9658Q28.5645-40.6738 28.5645-42.6758L28.5645-47.2168Q28.5645-52.0508 30.8838-54.4922Q33.2031-56.9336 37.4023-56.9336Q39.502-56.9336 40.5762-56.0547Q41.6504-55.1758 41.6504-53.8086Q41.6504-52.4414 40.7715-51.6357Q39.8926-50.8301 38.5742-50.8301Q36.5723-50.8301 35.8398-49.8779Q35.1074-48.9258 35.1074-46.6797L35.1074-41.6016Q35.1074-38.9648 33.5449-37.1582Q31.9824-35.3516 29.1992-34.7656L29.1992-35.6934Q31.9824-35.1074 33.5449-33.252Q35.1074-31.3965 35.1074-28.7598L35.1074-23.7305Q35.1074-21.4355 35.8398-20.4834Q36.5723-19.5312 38.5742-19.5312Q39.8926-19.5312 40.7715-18.7256Q41.6504-17.9199 41.6504-16.5527Q41.6504-15.1855 40.5762-14.3311Q39.502-13.4766 37.4023-13.4766ZM53.3203-13.4766Q51.2695-13.4766 50.1709-14.3311Q49.0723-15.1855 49.0723-16.5527Q49.0723-17.9199 49.9512-18.7256Q50.8301-19.5312 52.1973-19.5312Q54.1504-19.5312 54.8828-20.4834Q55.6152-21.4355 55.6152-23.7305L55.6152-28.7598Q55.6152-31.3965 57.2021-33.252Q58.7891-35.1074 61.5723-35.6934L61.5723-34.7656Q58.7891-35.3516 57.2021-37.1582Q55.6152-38.9648 55.6152-41.6016L55.6152-46.6797Q55.6152-48.9258 54.8828-49.8779Q54.1504-50.8301 52.1973-50.8301Q50.8301-50.8301 49.9512-51.6357Q49.0723-52.4414 49.0723-53.8086Q49.0723-55.1758 50.1709-56.0547Q51.2695-56.9336 53.3203-56.9336Q57.5195-56.9336 59.8633-54.4922Q62.207-52.0508 62.207-47.2168L62.207-42.6758Q62.207-40.6738 62.7441-39.9658Q63.2812-39.2578 64.5996-38.916Q66.4551-38.4766 67.0898-36.8408Q67.7246-35.2051 67.0898-33.5693Q66.4551-31.9336 64.5996-31.4453Q63.2812-31.1035 62.7441-30.3955Q62.207-29.6875 62.207-27.6855L62.207-23.1934Q62.207-18.3105 59.8633-15.8936Q57.5195-13.4766 53.3203-13.4766Z"/>
  </g>
  <g id="Light-S" transform="matrix(1 0 0 1 1108.45 696)">
   <path d="M21.403-0.260417L67.9525-0.260417Q73.763-0.260417 76.6764-3.17383Q79.5898-6.08724 79.5898-11.8001L79.5898-58.5938Q79.5898-64.3066 76.6764-67.2119Q73.763-70.1172 67.9525-70.1172L21.403-70.1172Q15.625-70.1172 12.6953-67.2201Q9.76562-64.3229 9.76562-58.5938L9.76562-11.8001Q9.76562-6.05469 12.6953-3.15755Q15.625-0.260417 21.403-0.260417ZM36.9466-13.916Q33.0892-13.916 30.9326-16.1051Q28.776-18.2943 28.776-22.7702L28.776-27.9622Q28.776-30.1595 28.1331-30.9733Q27.4902-31.7871 25.8952-32.2266Q24.3978-32.6172 23.9176-33.9193Q23.4375-35.2214 23.9176-36.5072Q24.3978-37.793 25.8952-38.1673Q27.4902-38.6068 28.1331-39.4287Q28.776-40.2507 28.776-42.4479L28.776-47.6725Q28.776-52.1159 30.9326-54.3213Q33.0892-56.5267 36.9466-56.5267Q38.5091-56.5267 39.3311-55.835Q40.153-55.1432 40.153-54.0853Q40.153-53.0273 39.4694-52.3844Q38.7858-51.7415 37.7441-51.7415Q35.7096-51.7415 34.79-50.708Q33.8704-49.6745 33.8704-47.1354L33.8704-41.5202Q33.8704-38.8672 32.3812-37.085Q30.8919-35.3027 28.304-34.8958L28.304-35.5794Q30.8919-35.1725 32.3812-33.3496Q33.8704-31.5267 33.8704-28.8737L33.8704-23.3073Q33.8704-20.7357 34.79-19.7021Q35.7096-18.6686 37.7441-18.6686Q38.7858-18.6686 39.4694-18.0257Q40.153-17.3828 40.153-16.3249Q40.153-15.2669 39.3311-14.5915Q38.5091-13.916 36.9466-13.916ZM52.4089-13.916Q50.8626-13.916 50.0244-14.5915Q49.1862-15.2669 49.1862-16.3249Q49.1862-17.3828 49.8779-18.0257Q50.5697-18.6686 51.6276-18.6686Q53.6296-18.6686 54.5492-19.7021Q55.4688-20.7357 55.4688-23.3073L55.4688-28.8737Q55.4688-31.5267 56.9824-33.3496Q58.4961-35.1725 61.084-35.5794L61.084-34.8958Q58.4961-35.3027 56.9824-37.085Q55.4688-38.8672 55.4688-41.5202L55.4688-47.1354Q55.4688-49.6745 54.5492-50.708Q53.6296-51.7415 51.6276-51.7415Q50.5697-51.7415 49.8779-52.3844Q49.1862-53.0273 49.1862-54.0853Q49.1862-55.1432 50.0244-55.835Q50.8626-56.5267 52.4089-56.5267Q56.25-56.5267 58.4229-54.3213Q60.5957-52.1159 60.5957-47.6725L60.5957-42.4479Q60.5957-40.2507 61.2549-39.4368Q61.9141-38.623 63.4928-38.1673Q64.9414-37.8092 65.446-36.5072Q65.9505-35.2051 65.446-33.9111Q64.9414-32.6172 63.4928-32.2266Q61.8978-31.8197 61.2467-30.9896Q60.5957-30.1595 60.5957-27.9622L60.5957-22.7702Q60.5957-18.2943 58.4229-16.1051Q56.25-13.916 52.4089-13.916Z"/>
  </g>
  <g id="Thin-S" transform="matrix(1 0 0 1 812.615 696)">
   <path d="M20.3267-1.12147L67.2852-1.12147Q72.5145-1.12147 75.1803-3.81962Q77.8462-6.51777 77.8462-11.6494L77.8462-58.7229Q77.8462-63.8546 75.1803-66.5338Q72.5145-69.2131 67.2852-69.2131L20.3267-69.2131Q15.1084-69.2131 12.437-66.5527Q9.76562-63.8924 9.76562-58.7229L9.76562-11.6494Q9.76562-6.44216 12.437-3.78182Q15.1084-1.12147 20.3267-1.12147ZM36.3439-14.4972Q32.9385-14.4972 30.9972-16.385Q29.0559-18.2727 29.0559-22.2105L29.0559-28.3282Q29.0559-30.7838 28.2731-31.7375Q27.4902-32.6912 25.5292-33.2598Q24.57-33.5213 24.2621-34.3821Q23.9541-35.2429 24.2621-36.0982Q24.57-36.9534 25.5292-37.1771Q27.4902-37.7457 28.2731-38.7183Q29.0559-39.691 29.0559-42.1465L29.0559-48.2753Q29.0559-52.202 30.9972-54.0953Q32.9385-55.9885 36.3439-55.9885Q37.196-55.9885 37.6843-55.5444Q38.1726-55.1002 38.1726-54.4512Q38.1726-53.8023 37.7473-53.3747Q37.322-52.947 36.6463-52.947Q34.5687-52.947 33.4016-51.8059Q32.2344-50.6647 32.2344-47.7382L32.2344-41.4126Q32.2344-38.738 30.842-36.9881Q29.4497-35.2382 27.1201-35.068L27.1201-35.4287Q29.4497-35.2586 30.842-33.4788Q32.2344-31.6989 32.2344-29.0244L32.2344-22.7476Q32.2344-19.81 33.4016-18.6689Q34.5687-17.5277 36.6463-17.5277Q37.322-17.5277 37.7473-17.1001Q38.1726-16.6724 38.1726-16.0235Q38.1726-15.3746 37.6843-14.9359Q37.196-14.4972 36.3439-14.4972ZM51.2034-14.4972Q50.3245-14.4972 49.8307-14.9359Q49.3369-15.3746 49.3369-16.0235Q49.3369-16.6724 49.7811-17.1001Q50.2252-17.5277 50.8742-17.5277Q52.9407-17.5277 54.1079-18.6689Q55.275-19.81 55.275-22.7476L55.275-29.0244Q55.275-31.6989 56.6918-33.4788Q58.1086-35.2586 60.4382-35.4287L60.4382-35.068Q58.1086-35.2382 56.6918-36.9881Q55.275-38.738 55.275-41.4126L55.275-47.7382Q55.275-50.6647 54.1079-51.8059Q52.9407-52.947 50.8742-52.947Q50.2252-52.947 49.7811-53.3747Q49.3369-53.8023 49.3369-54.4512Q49.3369-55.1002 49.8307-55.5444Q50.3245-55.9885 51.2034-55.9885Q54.5709-55.9885 56.5178-54.0953Q58.4646-52.202 58.4646-48.2753L58.4646-42.1465Q58.4646-39.691 59.2852-38.7372Q60.1058-37.7835 62.029-37.1771Q62.9395-36.9267 63.2718-36.0659Q63.6041-35.2051 63.2718-34.3632Q62.9395-33.5213 62.029-33.2598Q60.068-32.7668 59.2663-31.7753Q58.4646-30.7838 58.4646-28.3282L58.4646-22.2105Q58.4646-18.2727 56.5178-16.385Q54.5709-14.4972 51.2034-14.4972Z"/>
  </g>
  <g id="Ultralight-S" transform="matrix(1 0 0 1 516.35 696)">
   <path d="M19.7754-1.5625L66.9434-1.5625Q71.875-1.5625 74.4141-4.15039Q76.9531-6.73828 76.9531-11.5723L76.9531-58.7891Q76.9531-63.623 74.4141-66.1865Q71.875-68.75 66.9434-68.75L19.7754-68.75Q14.8438-68.75 12.3047-66.2109Q9.76562-63.6719 9.76562-58.7891L9.76562-11.5723Q9.76562-6.64062 12.3047-4.10156Q14.8438-1.5625 19.7754-1.5625ZM36.0352-14.7949Q32.8613-14.7949 31.0303-16.5283Q29.1992-18.2617 29.1992-21.9238L29.1992-28.5156Q29.1992-31.1035 28.3447-32.1289Q27.4902-33.1543 25.3418-33.7891Q24.6582-33.9844 24.4385-34.6191Q24.2188-35.2539 24.4385-35.8887Q24.6582-36.5234 25.3418-36.6699Q27.4902-37.3047 28.3447-38.3545Q29.1992-39.4043 29.1992-41.9922L29.1992-48.584Q29.1992-52.2461 31.0303-53.9795Q32.8613-55.7129 36.0352-55.7129Q36.5234-55.7129 36.8408-55.3955Q37.1582-55.0781 37.1582-54.6387Q37.1582-54.1992 36.8652-53.8818Q36.5723-53.5645 36.084-53.5645Q33.9844-53.5645 32.6904-52.3682Q31.3965-51.1719 31.3965-48.0469L31.3965-41.3574Q31.3965-38.6719 30.0537-36.9385Q28.7109-35.2051 26.5137-35.1562L26.5137-35.3516Q28.7109-35.3027 30.0537-33.5449Q31.3965-31.7871 31.3965-29.1016L31.3965-22.4609Q31.3965-19.3359 32.6904-18.1396Q33.9844-16.9434 36.084-16.9434Q36.5723-16.9434 36.8652-16.626Q37.1582-16.3086 37.1582-15.8691Q37.1582-15.4297 36.8408-15.1123Q36.5234-14.7949 36.0352-14.7949ZM50.5859-14.7949Q50.0488-14.7949 49.7314-15.1123Q49.4141-15.4297 49.4141-15.8691Q49.4141-16.3086 49.7314-16.626Q50.0488-16.9434 50.4883-16.9434Q52.5879-16.9434 53.8818-18.1396Q55.1758-19.3359 55.1758-22.4609L55.1758-29.1016Q55.1758-31.7871 56.543-33.5449Q57.9102-35.3027 60.1074-35.3516L60.1074-35.1562Q57.9102-35.2051 56.543-36.9385Q55.1758-38.6719 55.1758-41.3574L55.1758-48.0469Q55.1758-51.1719 53.8818-52.3682Q52.5879-53.5645 50.4883-53.5645Q50.0488-53.5645 49.7314-53.8818Q49.4141-54.1992 49.4141-54.6387Q49.4141-55.0781 49.7314-55.3955Q50.0488-55.7129 50.5859-55.7129Q53.7109-55.7129 55.542-53.9795Q57.373-52.2461 57.373-48.584L57.373-41.9922Q57.373-39.4043 58.2764-38.3789Q59.1797-37.3535 61.2793-36.6699Q61.9141-36.4746 62.1582-35.8398Q62.4023-35.2051 62.1582-34.5947Q61.9141-33.9844 61.2793-33.7891Q59.1309-33.252 58.252-32.1777Q57.373-31.1035 57.373-28.5156L57.373-21.9238Q57.373-18.2617 55.542-16.5283Q53.7109-14.7949 50.5859-14.7949Z"/>
  </g>
 </g>
</svg>
